<svg width="325" height="131" viewBox="0 0 325 131" fill="none" xmlns="http://www.w3.org/2000/svg">
    <path d="M0 0H325V131H0V0Z" fill="#FB5D5D"/>
    <path d="M182 64C177.172 59.0632 170.443 56 163 56C155.557 56 148.828 59.0632 144 64" stroke="white" stroke-width="2" stroke-linecap="round" stroke-linejoin="round"/>
    <circle cx="148.45" cy="35.5499" r="2.55" fill="white"/>
    <circle cx="177.55" cy="35.5499" r="2.55" fill="white"/>
    <path d="M104.174 101.928H109.518V92.392H105.358C105.358 95.0267 105.337 96.824 105.294 97.784C105.252 98.7333 105.156 99.4907 105.006 100.056C104.868 100.611 104.59 101.235 104.174 101.928ZM102.702 101.928C103.182 101.235 103.502 100.627 103.662 100.104C103.833 99.5813 103.95 98.8133 104.014 97.8C104.078 96.776 104.11 94.9733 104.11 92.392V91.32H110.798V101.928H112.142V105.56H110.958V103H102.958V105.56H101.79V101.928H102.702ZM117.107 94.52C118.27 94.52 119.102 94.76 119.603 95.24C120.105 95.72 120.355 96.5093 120.355 97.608V100.76C120.355 101.517 120.435 102.264 120.595 103H119.475C119.39 102.584 119.337 102.093 119.315 101.528H119.283C118.995 102.04 118.579 102.44 118.035 102.728C117.491 103.016 116.878 103.16 116.195 103.16C115.427 103.16 114.814 102.947 114.355 102.52C113.897 102.083 113.667 101.496 113.667 100.76C113.667 99.832 114.073 99.096 114.883 98.552C115.694 97.9973 116.846 97.72 118.339 97.72H119.187V97.64C119.187 96.8293 119.033 96.2693 118.723 95.96C118.425 95.64 117.886 95.48 117.107 95.48C116.105 95.48 115.171 95.7253 114.307 96.216L114.099 95.272C115.017 94.7707 116.019 94.52 117.107 94.52ZM114.819 100.712C114.819 101.192 114.969 101.571 115.267 101.848C115.566 102.115 115.966 102.248 116.467 102.248C117.203 102.248 117.838 101.987 118.371 101.464C118.915 100.931 119.187 100.28 119.187 99.512V98.616H118.339C117.219 98.616 116.35 98.808 115.731 99.192C115.123 99.5653 114.819 100.072 114.819 100.712ZM124.049 102.168C124.443 102.232 124.875 102.264 125.345 102.264C127.126 102.264 128.017 101.683 128.017 100.52C128.017 99.464 127.073 98.936 125.185 98.936H124.049V102.168ZM124.049 98.136H125.169C125.937 98.136 126.534 98.008 126.961 97.752C127.387 97.496 127.601 97.144 127.601 96.696C127.601 95.8427 126.817 95.416 125.249 95.416C124.833 95.416 124.433 95.448 124.049 95.512V98.136ZM129.201 100.6C129.201 102.275 127.899 103.112 125.297 103.112C124.347 103.112 123.526 103.053 122.833 102.936V94.744C123.59 94.6267 124.369 94.568 125.169 94.568C126.459 94.568 127.377 94.76 127.921 95.144C128.475 95.5173 128.753 95.9973 128.753 96.584C128.753 97.064 128.587 97.4693 128.257 97.8C127.926 98.12 127.462 98.344 126.865 98.472V98.488C127.622 98.6053 128.198 98.8507 128.593 99.224C128.998 99.5867 129.201 100.045 129.201 100.6ZM134.154 94.52C135.317 94.52 136.149 94.76 136.65 95.24C137.151 95.72 137.402 96.5093 137.402 97.608V100.76C137.402 101.517 137.482 102.264 137.642 103H136.522C136.437 102.584 136.383 102.093 136.362 101.528H136.33C136.042 102.04 135.626 102.44 135.082 102.728C134.538 103.016 133.925 103.16 133.242 103.16C132.474 103.16 131.861 102.947 131.402 102.52C130.943 102.083 130.714 101.496 130.714 100.76C130.714 99.832 131.119 99.096 131.93 98.552C132.741 97.9973 133.893 97.72 135.386 97.72H136.234V97.64C136.234 96.8293 136.079 96.2693 135.77 95.96C135.471 95.64 134.933 95.48 134.154 95.48C133.151 95.48 132.218 95.7253 131.354 96.216L131.146 95.272C132.063 94.7707 133.066 94.52 134.154 94.52ZM131.866 100.712C131.866 101.192 132.015 101.571 132.314 101.848C132.613 102.115 133.013 102.248 133.514 102.248C134.25 102.248 134.885 101.987 135.418 101.464C135.962 100.931 136.234 100.28 136.234 99.512V98.616H135.386C134.266 98.616 133.397 98.808 132.778 99.192C132.17 99.5653 131.866 100.072 131.866 100.712ZM141.096 101.368H141.128L145.864 94.68H147.176V103H145.96V96.312H145.944L141.192 103H139.88V94.68H141.096V101.368ZM142.168 92.232C142.541 92.5093 142.994 92.648 143.528 92.648C144.061 92.648 144.514 92.5093 144.888 92.232C145.261 91.944 145.458 91.6027 145.48 91.208H146.488C146.488 91.8587 146.205 92.4133 145.64 92.872C145.085 93.3307 144.381 93.56 143.528 93.56C142.674 93.56 141.965 93.3307 141.4 92.872C140.845 92.4133 140.568 91.8587 140.568 91.208H141.592C141.613 91.6027 141.805 91.944 142.168 92.232ZM156.447 95.656H153.407V103H152.143V95.656H149.103V94.68H156.447V95.656ZM159.004 98.36H164.124C164.113 97.432 163.889 96.7173 163.452 96.216C163.015 95.7147 162.412 95.464 161.644 95.464C160.844 95.464 160.209 95.72 159.74 96.232C159.281 96.7333 159.036 97.4427 159.004 98.36ZM159.004 99.288C159.025 100.195 159.303 100.909 159.836 101.432C160.369 101.955 161.063 102.216 161.916 102.216C162.737 102.216 163.553 102.003 164.364 101.576L164.684 102.488C163.788 102.936 162.828 103.16 161.804 103.16C160.609 103.16 159.644 102.771 158.908 101.992C158.172 101.213 157.804 100.163 157.804 98.84C157.804 97.496 158.145 96.44 158.828 95.672C159.521 94.904 160.46 94.52 161.644 94.52C162.796 94.52 163.687 94.888 164.316 95.624C164.956 96.3493 165.276 97.3947 165.276 98.76C165.276 98.8987 165.265 99.0747 165.244 99.288H159.004ZM174.409 95.448C173.587 95.448 172.702 95.6347 171.753 96.008L171.465 95.112C172.467 94.7173 173.481 94.52 174.505 94.52C175.646 94.52 176.542 94.712 177.193 95.096C177.843 95.48 178.169 95.9707 178.169 96.568C178.169 97.0053 177.987 97.4053 177.625 97.768C177.273 98.1307 176.761 98.3867 176.089 98.536V98.568C176.825 98.696 177.374 98.968 177.737 99.384C178.11 99.7893 178.297 100.248 178.297 100.76C178.297 101.507 177.966 102.093 177.305 102.52C176.654 102.947 175.721 103.16 174.505 103.16C173.459 103.16 172.409 102.963 171.353 102.568L171.641 101.672C172.611 102.024 173.55 102.2 174.457 102.2C176.195 102.2 177.065 101.677 177.065 100.632C177.065 100.099 176.793 99.6987 176.249 99.432C175.705 99.1653 174.809 99.032 173.561 99.032H172.857V98.088H173.561C175.811 98.088 176.937 97.6347 176.937 96.728C176.937 95.8747 176.094 95.448 174.409 95.448ZM183.263 94.52C184.426 94.52 185.258 94.76 185.759 95.24C186.261 95.72 186.511 96.5093 186.511 97.608V100.76C186.511 101.517 186.591 102.264 186.751 103H185.631C185.546 102.584 185.493 102.093 185.471 101.528H185.439C185.151 102.04 184.735 102.44 184.191 102.728C183.647 103.016 183.034 103.16 182.351 103.16C181.583 103.16 180.97 102.947 180.511 102.52C180.053 102.083 179.823 101.496 179.823 100.76C179.823 99.832 180.229 99.096 181.039 98.552C181.85 97.9973 183.002 97.72 184.495 97.72H185.343V97.64C185.343 96.8293 185.189 96.2693 184.879 95.96C184.581 95.64 184.042 95.48 183.263 95.48C182.261 95.48 181.327 95.7253 180.463 96.216L180.255 95.272C181.173 94.7707 182.175 94.52 183.263 94.52ZM180.975 100.712C180.975 101.192 181.125 101.571 181.423 101.848C181.722 102.115 182.122 102.248 182.623 102.248C183.359 102.248 183.994 101.987 184.527 101.464C185.071 100.931 185.343 100.28 185.343 99.512V98.616H184.495C183.375 98.616 182.506 98.808 181.887 99.192C181.279 99.5653 180.975 100.072 180.975 100.712ZM190.237 99V103H188.989V94.68H190.237V98.072H194.957V94.68H196.205V103H194.957V99H190.237ZM203.942 96.376C203.462 95.7787 202.801 95.48 201.958 95.48C201.116 95.48 200.449 95.7787 199.958 96.376C199.478 96.9627 199.238 97.784 199.238 98.84C199.238 99.896 199.478 100.723 199.958 101.32C200.449 101.907 201.116 102.2 201.958 102.2C202.801 102.2 203.462 101.907 203.942 101.32C204.433 100.723 204.678 99.896 204.678 98.84C204.678 97.784 204.433 96.9627 203.942 96.376ZM204.806 101.992C204.092 102.771 203.142 103.16 201.958 103.16C200.774 103.16 199.825 102.771 199.11 101.992C198.396 101.213 198.038 100.163 198.038 98.84C198.038 97.5173 198.396 96.4667 199.11 95.688C199.825 94.9093 200.774 94.52 201.958 94.52C203.142 94.52 204.092 94.9093 204.806 95.688C205.521 96.4667 205.878 97.5173 205.878 98.84C205.878 100.163 205.521 101.213 204.806 101.992ZM208.939 102.168C209.334 102.232 209.766 102.264 210.235 102.264C212.017 102.264 212.907 101.683 212.907 100.52C212.907 99.464 211.963 98.936 210.075 98.936H208.939V102.168ZM208.939 98.136H210.059C210.827 98.136 211.425 98.008 211.851 97.752C212.278 97.496 212.491 97.144 212.491 96.696C212.491 95.8427 211.707 95.416 210.139 95.416C209.723 95.416 209.323 95.448 208.939 95.512V98.136ZM214.091 100.6C214.091 102.275 212.79 103.112 210.187 103.112C209.238 103.112 208.417 103.053 207.723 102.936V94.744C208.481 94.6267 209.259 94.568 210.059 94.568C211.35 94.568 212.267 94.76 212.811 95.144C213.366 95.5173 213.643 95.9973 213.643 96.584C213.643 97.064 213.478 97.4693 213.147 97.8C212.817 98.12 212.353 98.344 211.755 98.472V98.488C212.513 98.6053 213.089 98.8507 213.483 99.224C213.889 99.5867 214.091 100.045 214.091 100.6ZM221.349 96.376C220.869 95.7787 220.207 95.48 219.365 95.48C218.522 95.48 217.855 95.7787 217.365 96.376C216.885 96.9627 216.645 97.784 216.645 98.84C216.645 99.896 216.885 100.723 217.365 101.32C217.855 101.907 218.522 102.2 219.365 102.2C220.207 102.2 220.869 101.907 221.349 101.32C221.839 100.723 222.085 99.896 222.085 98.84C222.085 97.784 221.839 96.9627 221.349 96.376ZM222.213 101.992C221.498 102.771 220.549 103.16 219.365 103.16C218.181 103.16 217.231 102.771 216.517 101.992C215.802 101.213 215.445 100.163 215.445 98.84C215.445 97.5173 215.802 96.4667 216.517 95.688C217.231 94.9093 218.181 94.52 219.365 94.52C220.549 94.52 221.498 94.9093 222.213 95.688C222.927 96.4667 223.285 97.5173 223.285 98.84C223.285 100.163 222.927 101.213 222.213 101.992Z" fill="white"/>
</svg>
