<svg width="48" height="46" viewBox="0 0 48 46" fill="none" xmlns="http://www.w3.org/2000/svg">
<path d="M43.0018 24.5333C36.9695 20.3593 27.7487 22.063 25.1634 23.0852C30.851 19.8481 39.6409 9.62593 44.2944 1.02222H36.711C34.2118 5.28148 30.851 12.5222 25.1634 18.7407C25.2496 17.3778 26.456 0 12.4955 0C9.04847 0 5.94614 1.36296 3.61939 3.66296C1.37881 5.87778 0 8.6037 0 12.0111C0 16.5259 2.32675 19.5926 4.9982 21.4667C11.0305 25.6407 20.2513 23.937 22.8366 22.9148C17.2352 26.237 8.44524 36.4593 3.79174 45.063H11.3752C13.8743 40.8037 17.2352 33.563 22.9228 27.3444C22.7504 28.6222 21.4578 46 35.5045 46C38.9515 46 42.0539 44.637 44.3806 42.337C46.6212 40.1222 48 37.3111 48 33.9889C48 29.4741 45.6733 26.3222 43.0018 24.5333ZM20.4237 19.5926C17.9246 20.0185 11.5476 21.0407 7.06643 17.1222C5.60144 15.8444 4.82585 14.2259 4.82585 12.0111C4.82585 7.75185 7.84201 4.77037 12.1508 4.77037C14.1329 4.77037 15.684 5.45185 16.8905 6.64444C20.6822 10.3926 20.5099 17.3778 20.4237 19.5926ZM35.8492 41.2296C33.8671 41.2296 32.316 40.5482 31.1095 39.3556C27.3178 35.6074 27.4901 28.6222 27.5763 26.4074C30.0754 25.9815 36.4524 24.9593 40.9336 28.8778C42.3986 30.1556 43.1741 31.7741 43.1741 33.9889C43.1741 38.2482 40.158 41.2296 35.8492 41.2296Z" fill="#00C2FF"/>
</svg>
