<svg width="186" height="71" viewBox="0 0 186 71" fill="none" xmlns="http://www.w3.org/2000/svg">
<path d="M56.4473 13.5776H185.469V70.0245H67.0619L57.6815 63.0304L56.4473 13.5776Z" fill="white"/>
<path d="M30.692 0.24707C39.1672 0.24707 46.8197 3.703 52.415 9.21604C54.4721 11.2731 56.2 13.5771 57.5989 16.1279C55.6241 16.5393 53.8138 17.2799 52.1681 18.3496C51.0984 16.5393 49.7819 14.8114 48.3008 13.3302C43.7751 8.80462 37.5216 6.00695 30.692 6.00695C23.7801 6.00695 17.5265 8.80462 13.0009 13.3302C8.47527 17.8559 5.6776 24.1095 5.6776 30.939C5.6776 37.8509 8.47527 44.1045 13.0009 48.6301C17.5265 53.1558 23.7801 55.9534 30.692 55.9534C37.6038 55.9534 43.8574 53.1558 48.3008 48.6301C49.2882 47.6427 50.1933 46.573 51.0161 45.5033C52.5795 46.6553 54.3075 47.5604 56.2001 48.1364C55.1304 49.7821 53.8138 51.3455 52.415 52.7443C46.8197 58.3396 39.1672 61.7133 30.692 61.7133C22.2167 61.7133 14.482 58.2574 8.96896 52.7443C3.37364 47.149 0 39.4966 0 31.0213C0 22.5461 3.45593 14.8936 8.96896 9.29832C14.482 3.703 22.2167 0.24707 30.692 0.24707Z" fill="#F24941"/>
<path d="M31.021 24.1919C29.9513 21.1473 26.8245 19.9131 23.78 19.9131C19.2543 19.9131 15.0578 22.6285 14.3996 27.3187L13.083 36.7813C12.507 41.7184 16.0453 44.1869 20.7354 44.1869C25.0965 44.1869 29.7044 41.6361 30.3627 36.7813L30.5272 35.3825C31.3501 29.5403 24.6851 26.5781 19.6657 29.8695L19.9949 27.4009C20.1595 25.9198 21.5583 25.097 23.1217 25.097C24.3559 25.097 25.9193 25.5084 26.4953 26.6604L31.021 24.1919ZM24.6851 36.9459C24.5205 38.1802 22.9571 38.9207 21.476 38.9207C19.9126 38.9207 18.5138 38.1802 18.7606 36.9459L19.0075 35.2179C19.3366 32.7494 25.3434 32.7494 24.9319 35.2179L24.6851 36.9459Z" fill="#0D0E0F"/>
<path d="M50.5229 24.1919C49.4532 21.1473 46.3264 19.9131 43.2819 19.9131C38.674 19.9131 34.5598 22.6285 33.9015 27.3187L32.585 36.7813C32.009 41.7184 35.5472 44.1869 40.2374 44.1869C44.5985 44.1869 49.2064 41.6361 49.8646 36.7813L50.0292 35.3825C50.8521 29.5403 44.187 26.5781 39.1677 29.8695L39.4968 27.4009C39.6614 25.9198 41.0602 25.097 42.6236 25.097C43.8579 25.097 45.4213 25.5084 45.9973 26.6604L50.5229 24.1919ZM44.1047 36.9459C43.9402 38.1802 42.3768 38.9207 40.8957 38.9207C39.3323 38.9207 37.9334 38.1802 38.1803 36.9459L38.4271 35.2179C38.7563 32.7494 44.763 32.7494 44.3516 35.2179L44.1047 36.9459Z" fill="#0D0E0F"/>
<path d="M50.7695 39.9081C52.5798 42.7058 56.0357 44.1869 58.9157 44.1869C64.0173 44.1869 68.0492 41.8829 68.872 37.275C69.9417 31.4329 65.9921 29.8695 61.8779 29.0466C60.0676 28.6352 58.9157 28.0592 59.0802 26.6604C59.2448 25.4261 60.4791 24.9324 61.9602 24.9324C63.359 24.9324 64.9224 25.5084 65.9098 26.6604L70.2709 23.6981C68.2138 20.7359 65.5807 19.9131 62.7007 19.9131C58.3397 19.9131 54.0609 21.641 53.2381 26.4135C52.4152 30.8569 55.7066 33.8191 59.4094 34.4774C61.3019 34.7242 63.359 35.3825 63.1121 36.8636C62.8653 38.0979 61.4665 38.6739 59.9031 38.6739C58.1751 38.6739 56.2003 37.9333 55.1306 36.3699L50.7695 39.9081Z" fill="#0D0E0F"/>
<path d="M77.7591 34.9706H84.5064L83.2721 43.8572H89.2788L92.5702 20.2417H86.5635L85.3292 29.2107H78.4996L79.8162 20.2417H73.8094L70.5181 43.8572H76.5248L77.7591 34.9706Z" fill="#0D0E0F"/>
<path d="M102.608 20.2417H96.6837L93.3101 43.8572H99.3168L102.608 20.2417Z" fill="#0D0E0F"/>
<path d="M103.349 43.8572H109.356L110.672 34.3946L110.59 29.8689L110.755 29.7867L112.154 34.5591L116.185 43.8572H122.192L125.484 20.2417H119.559L118.078 30.9386V35.0528H117.996L116.679 30.2804L112.318 20.2417H106.723L103.349 43.8572Z" fill="#0D0E0F"/>
<path d="M125.484 40.6488C125.237 42.5413 126.471 44.0224 128.281 44.0224C130.091 44.0224 131.819 42.5413 132.066 40.6488C132.313 38.8385 130.997 37.3574 129.186 37.3574C127.458 37.3574 125.73 38.8385 125.484 40.6488Z" fill="#0D0E0F"/>
<path d="M147.371 43.8572H154.776L149.098 35.7934C152.308 34.23 154.2 32.8312 154.776 28.3878C155.434 22.8748 151.978 20.2417 147.124 20.2417H137.661L134.37 43.8572H140.376L141.446 36.3694H142.516L147.371 43.8572ZM142.269 31.1855L143.009 25.7547H146.548C148.276 25.7547 149.016 26.989 148.852 28.3878C148.687 29.7867 147.617 31.1032 145.807 31.1032H142.269V31.1855Z" fill="#0D0E0F"/>
<path d="M165.062 20.2417H159.056L156.834 35.8757C156.093 41.3887 160.372 44.1864 165.062 44.1864C169.753 44.1864 174.936 41.3887 175.677 35.8757L177.899 20.2417H171.892L169.67 35.8757C169.423 37.7682 167.695 38.6733 165.885 38.6733C164.157 38.6733 162.594 37.7682 162.923 35.8757L165.062 20.2417Z" fill="#0D0E0F"/>
<path d="M74.4672 63.0293V56.0352H75.7838V64.099H65.7451V56.0352H67.0617V63.0293H70.1885V56.0352H71.505V63.0293H74.4672ZM79.7334 64.099H78.3346V56.0352H79.5689V62.3711L83.5185 56.0352H84.835V64.099H83.6008V57.8454L79.7334 64.099ZM94.1331 64.099H92.8166V60.4785H88.867V64.099H87.5504V56.0352H88.867V59.4088H92.8166V56.0352H94.1331V64.099ZM103.925 64.099V56.0352H105.241V64.099H103.925ZM98.1651 59.0797H99.3993C100.551 59.0797 101.374 59.2443 101.95 59.6557C102.444 60.0671 102.691 60.7254 102.691 61.6305C102.691 62.4533 102.444 63.0293 101.95 63.4408C101.456 63.8522 100.634 64.0167 99.4816 64.0167H96.8485V55.9529H98.1651V59.0797ZM101.456 61.6305C101.456 61.2191 101.374 60.89 101.21 60.6431C101.045 60.3962 100.88 60.314 100.551 60.1494C100.222 60.0671 99.8107 59.9848 99.317 59.9848H98.2473V62.9471H99.4816C100.222 62.9471 100.716 62.8648 100.963 62.6179C101.292 62.4533 101.456 62.1242 101.456 61.6305ZM113.634 64.099H112.236V56.0352H113.47V62.3711L117.42 56.0352H118.736V64.099H117.502V57.8454L113.634 64.099ZM124.661 65.827V63.0293H125.401C125.895 62.0419 126.306 60.9722 126.553 59.738C126.8 58.5037 126.965 57.2694 126.965 56.0352H131.49V63.0293H132.807V65.827H131.572V64.0167H125.977V65.827H124.661ZM130.256 57.0226H128.199C128.116 58.0923 127.952 59.162 127.705 60.2317C127.458 61.2191 127.129 62.2065 126.718 63.0293H130.174V57.0226H130.256ZM136.016 64.099H134.617V56.0352H135.851V62.3711L139.801 56.0352H141.117V64.099H139.883V57.8454L136.016 64.099ZM150.004 62.7825C149.757 63.1939 149.428 63.6053 148.934 63.8522C148.523 64.099 147.865 64.2636 147.124 64.2636C145.972 64.2636 145.067 63.9345 144.409 63.1939C143.833 62.4533 143.504 61.3837 143.504 59.9848C143.504 58.586 143.833 57.5163 144.409 56.7758C144.985 56.0352 145.89 55.7061 147.042 55.7061C148.358 55.7061 149.346 56.1998 149.839 57.1872L148.77 57.8454C148.605 57.5163 148.358 57.2695 148.029 57.1049C147.782 56.9403 147.371 56.858 146.96 56.858C146.219 56.858 145.643 57.1049 145.314 57.6809C144.985 58.2569 144.82 58.9974 144.82 59.9848C144.82 60.7254 144.902 61.3014 145.067 61.7128C145.232 62.1242 145.478 62.4534 145.808 62.7002C146.137 62.9471 146.548 63.0293 147.042 63.0293C147.453 63.0293 147.782 62.947 148.112 62.7825C148.358 62.6179 148.605 62.3711 148.852 62.0419L150.004 62.7825ZM153.295 55.9529V59.4088H154.447C154.777 59.4088 155.023 59.3265 155.188 59.0797C155.435 58.8328 155.599 58.5037 155.846 58.01C156.093 57.5163 156.258 56.858 156.422 55.9529H157.739C157.574 56.858 157.327 57.5163 157.08 58.0923C156.834 58.6683 156.669 59.0797 156.422 59.3266C156.175 59.5734 155.928 59.738 155.599 59.8203C156.011 59.9025 156.258 60.1494 156.504 60.3962C156.751 60.6431 156.998 61.0545 157.163 61.5482C157.327 62.0419 157.574 62.8648 157.903 64.0167H156.587C156.422 63.3585 156.258 62.8648 156.093 62.3711C155.929 61.9596 155.764 61.5482 155.599 61.3014C155.435 61.0545 155.27 60.8077 155.023 60.7254C154.777 60.5608 154.53 60.5608 154.201 60.5608H153.213V64.099H151.897V56.0352H153.295V55.9529ZM161.195 64.099H159.796V56.0352H161.03V62.3711L164.98 56.0352H166.296V64.099H165.062V57.8454L161.195 64.099Z" fill="#282726"/>
</svg>
