<svg width="64" height="64" viewBox="0 0 64 64" fill="none" xmlns="http://www.w3.org/2000/svg">
<rect width="64" height="64" fill="#7F00FF"/>
<path d="M46.8363 39.7676C42.2544 43.1314 36.802 44.9461 31.0288 44.9461C25.2556 44.9461 19.8031 43.1757 15.2212 39.7676L13.251 42.2462C18.3827 46.0526 24.5225 48.0443 31.0288 48.0443C37.4892 48.0443 43.629 46.0526 48.8065 42.2462L46.8363 39.7676Z" fill="white"/>
<path d="M22.0491 33.3057C20.1705 35.0318 18.6127 38.0858 17.8338 40.1217C18.796 40.7856 19.7582 41.361 20.7662 41.8921C26.8601 34.7663 35.749 34.8548 41.4764 41.7593C42.4844 41.2282 43.4466 40.6528 44.363 39.9889C42.4844 36.8022 41.6138 34.0138 40.6058 31.8893C40.3309 31.314 40.1018 30.7828 39.9185 30.3402C39.5062 29.4108 38.6356 27.1093 38.4065 24.9848L39.3229 24.8963C39.4604 26.2683 39.9185 27.8617 40.3309 29.0124C41.9804 29.0124 43.9048 28.7026 43.9048 28.7026C44.1339 26.3126 44.3172 23.9668 44.5004 21.6653L46.6539 21.1784C45.5085 17.6376 43.2633 16.3098 41.1098 16.0443H40.6975V17.5934C40.3767 17.5934 40.1018 17.5491 39.7811 17.5491V16C38.544 16.0443 37.4443 16.3983 36.6654 16.8409C36.3905 17.018 36.1156 17.195 35.8865 17.3721L36.9861 18.4343C36.7112 18.6113 36.4821 18.7884 36.2988 19.0097L35.1992 17.9032C34.1453 18.9212 33.5039 20.0277 33.1373 21.1784H35.0159C34.9701 21.444 34.9243 21.7538 34.9243 22.0636H32.9541C32.3584 25.1618 33.5497 28.3043 33.6413 29.3665C28.0972 27.9945 23.2404 32.1106 23.2404 32.1106C20.6287 27.7289 14.7639 29.6763 13.2061 31.4467L15.3595 33.9696C19.6207 30.296 22.0491 33.3057 22.0491 33.3057Z" fill="white"/>
</svg>
