<svg width="64" height="64" viewBox="0 0 64 64" fill="none" xmlns="http://www.w3.org/2000/svg">
    <g clip-path="url(#clip0)">
        <rect x="-0.0292969" width="64" height="64" fill="#7F00FF"/>
        <path d="M32 30.4974L43.2361 19.2622C40.0235 16.4254 36.0056 14.9918 31.9776 15C31.7541 18.9435 30.2451 22.8175 27.458 25.9547L32 30.4974Z" fill="white"/>
        <path d="M25.9539 27.4587C22.8166 30.2466 18.9419 31.754 15 31.9784C14.9918 36.0062 16.4246 40.0242 19.2605 43.2368L30.4966 32.0016L25.9539 27.4587Z" fill="white"/>
        <path d="M44.7391 43.2359C47.061 40.6044 48.4293 37.4308 48.8473 34.1545C45.5023 34.4028 42.226 35.7008 39.5474 38.0441L44.7391 43.2359Z" fill="white"/>
        <path d="M38.044 39.5482C35.6997 42.2269 34.4027 45.5023 34.1543 48.8473C37.4298 48.4301 40.6034 47.0618 43.2349 44.74L38.044 39.5482Z" fill="white"/>
        <path d="M31.9993 33.5039L20.7632 44.7391C23.9766 47.5759 27.9945 49.0096 32.0208 49.0013C32.2459 45.0578 33.7541 41.1839 36.542 38.0467L31.9993 33.5039Z" fill="white"/>
        <path d="M38.0452 36.5426C41.1825 33.7547 45.0572 32.2473 48.9998 32.0222C49.0081 27.9951 47.5744 23.9772 44.7385 20.7646L33.5024 31.9998L38.0452 36.5426Z" fill="white"/>
        <path d="M19.2607 20.7654C16.9388 23.3968 15.5713 26.5705 15.1533 29.8468C18.4983 29.5984 21.7738 28.3005 24.4533 25.9571L19.2607 20.7654Z" fill="white"/>
        <path d="M25.9565 24.4531C28.2999 21.7744 29.5978 18.499 29.8462 15.154C26.5699 15.5712 23.3962 16.9395 20.7656 19.2613L25.9565 24.4531Z" fill="white"/>
    </g>
    <defs>
        <clipPath id="clip0">
            <rect width="64" height="64" fill="white"/>
        </clipPath>
    </defs>
</svg>
