<svg width="257" height="55" viewBox="0 0 257 55" fill="none" xmlns="http://www.w3.org/2000/svg">
    <path d="M73.8263 22.1653C74.7936 22.1653 75.6911 21.9002 76.5189 21.37L76.8956 22.2071C75.9841 22.8024 74.9285 23.1 73.7287 23.1C72.194 23.1 70.9663 22.6257 70.0455 21.677C69.1247 20.7283 68.6643 19.4587 68.6643 17.8682C68.6643 16.2592 69.1201 14.985 70.0315 14.0456C70.943 13.1062 72.1754 12.6365 73.7287 12.6365C74.9285 12.6365 75.9841 12.9341 76.8956 13.5294L76.5189 14.3664C75.6911 13.8363 74.7936 13.5712 73.8263 13.5712C72.5986 13.5712 71.6173 13.9619 70.8826 14.7431C70.1571 15.5151 69.7944 16.5568 69.7944 17.8682C69.7944 19.1797 70.1664 20.226 70.9105 21.0073C71.6639 21.7793 72.6358 22.1653 73.8263 22.1653Z" fill="#E6E6E6"/>
    <path d="M80.2483 22.1234H84.0849V16.5429H81.0854C81.0854 17.4264 81.0854 18.045 81.0854 18.3984C81.0854 18.7518 81.0714 19.1657 81.0435 19.6401C81.0249 20.1051 81.0017 20.4074 80.9738 20.5469C80.9552 20.6771 80.9087 20.8631 80.8343 21.105C80.7599 21.3468 80.6808 21.5235 80.5971 21.6351C80.5227 21.7374 80.4064 21.9002 80.2483 22.1234ZM79.0345 22.1234C79.2392 21.8723 79.3833 21.6956 79.467 21.5933C79.5507 21.4816 79.6437 21.3049 79.7461 21.0631C79.8484 20.812 79.9088 20.6213 79.9274 20.4911C79.9553 20.3516 79.9832 20.0586 80.0111 19.6122C80.0483 19.1564 80.0669 18.7472 80.0669 18.3844C80.0669 18.0124 80.0669 17.3985 80.0669 16.5429V15.7058H85.1034V22.1234H86.08V24.6347H85.0615V22.9605H79.3833V24.6347H78.3649V22.1234H79.0345Z" fill="#E6E6E6"/>
    <path d="M88.2398 18.9146H92.7043C92.695 18.1054 92.4996 17.4822 92.1183 17.0451C91.737 16.608 91.2115 16.3894 90.5418 16.3894C89.8442 16.3894 89.2908 16.6126 88.8816 17.0591C88.4816 17.4962 88.2677 18.1147 88.2398 18.9146ZM88.2398 19.7238C88.2584 20.5143 88.5002 21.1375 88.9653 21.5933C89.4303 22.049 90.0349 22.2769 90.779 22.2769C91.4951 22.2769 92.2067 22.0909 92.9135 21.7188L93.1926 22.514C92.4113 22.9047 91.5742 23.1 90.6813 23.1C89.6396 23.1 88.7979 22.7605 88.1561 22.0816C87.5143 21.4026 87.1935 20.4864 87.1935 19.3331C87.1935 18.1612 87.4911 17.2404 88.0864 16.5708C88.6909 15.9011 89.5094 15.5663 90.5418 15.5663C91.5463 15.5663 92.3229 15.8871 92.8717 16.5289C93.4297 17.1614 93.7088 18.0729 93.7088 19.2634C93.7088 19.3843 93.6995 19.5378 93.6809 19.7238H88.2398Z" fill="#E6E6E6"/>
    <path d="M96.5515 19.2773V15.7058H101.923V22.9605H100.89V16.5708H97.556V19.4447C97.556 20.8306 97.356 21.77 96.956 22.2629C96.5561 22.7559 95.7934 23.0349 94.668 23.1L94.6122 22.235C95.1517 22.2071 95.547 22.1188 95.7981 21.9699C96.0585 21.8211 96.2492 21.5467 96.3701 21.1468C96.491 20.7376 96.5515 20.1144 96.5515 19.2773Z" fill="#E6E6E6"/>
    <path d="M106.668 15.5663C107.682 15.5663 108.407 15.7755 108.845 16.1941C109.282 16.6126 109.5 17.3009 109.5 18.2589V21.0073C109.5 21.6677 109.57 22.3187 109.71 22.9605H108.733C108.659 22.5978 108.612 22.1699 108.593 21.677H108.566C108.314 22.1234 107.952 22.4722 107.477 22.7233C107.003 22.9744 106.468 23.1 105.873 23.1C105.203 23.1 104.668 22.914 104.269 22.5419C103.869 22.1606 103.669 21.6491 103.669 21.0073C103.669 20.1981 104.022 19.5564 104.729 19.082C105.436 18.5984 106.44 18.3565 107.742 18.3565H108.482V18.2868C108.482 17.5799 108.347 17.0916 108.077 16.8219C107.817 16.5429 107.347 16.4033 106.668 16.4033C105.794 16.4033 104.98 16.6173 104.227 17.0451L104.045 16.222C104.845 15.7848 105.719 15.5663 106.668 15.5663ZM104.673 20.9654C104.673 21.384 104.803 21.7142 105.064 21.956C105.324 22.1885 105.673 22.3048 106.11 22.3048C106.752 22.3048 107.305 22.0769 107.77 21.6212C108.245 21.1561 108.482 20.5888 108.482 19.9191V19.1378H107.742C106.766 19.1378 106.008 19.3052 105.468 19.6401C104.938 19.9656 104.673 20.4074 104.673 20.9654Z" fill="#E6E6E6"/>
    <path d="M112.749 19.4726V22.9605H111.661V15.7058H112.749V18.6635H116.865V15.7058H117.953V22.9605H116.865V19.4726H112.749Z" fill="#E6E6E6"/>
    <path d="M124.699 17.1846C124.281 16.6638 123.704 16.4033 122.969 16.4033C122.235 16.4033 121.653 16.6638 121.226 17.1846C120.807 17.6962 120.598 18.4123 120.598 19.3331C120.598 20.2539 120.807 20.9747 121.226 21.4956C121.653 22.0071 122.235 22.2629 122.969 22.2629C123.704 22.2629 124.281 22.0071 124.699 21.4956C125.127 20.9747 125.341 20.2539 125.341 19.3331C125.341 18.4123 125.127 17.6962 124.699 17.1846ZM125.453 22.0816C124.83 22.7605 124.002 23.1 122.969 23.1C121.937 23.1 121.109 22.7605 120.486 22.0816C119.863 21.4026 119.551 20.4864 119.551 19.3331C119.551 18.1798 119.863 17.2637 120.486 16.5847C121.109 15.9057 121.937 15.5663 122.969 15.5663C124.002 15.5663 124.83 15.9057 125.453 16.5847C126.076 17.2637 126.388 18.1798 126.388 19.3331C126.388 20.4864 126.076 21.4026 125.453 22.0816Z" fill="#E6E6E6"/>
    <path d="M70.2129 43.235C70.557 43.2908 70.9337 43.3187 71.343 43.3187C72.8962 43.3187 73.6728 42.8118 73.6728 41.798C73.6728 40.8772 72.8497 40.4168 71.2035 40.4168H70.2129V43.235ZM70.2129 39.7193H71.1895C71.8592 39.7193 72.38 39.6077 72.7521 39.3844C73.1241 39.1612 73.3101 38.8543 73.3101 38.4636C73.3101 37.7196 72.6265 37.3475 71.2593 37.3475C70.8965 37.3475 70.5477 37.3754 70.2129 37.4312V39.7193ZM74.7052 41.8678C74.7052 43.328 73.5705 44.0581 71.3011 44.0581C70.4733 44.0581 69.7572 44.007 69.1526 43.9047V36.7616C69.813 36.6593 70.4919 36.6081 71.1895 36.6081C72.3149 36.6081 73.1148 36.7755 73.5891 37.1104C74.0728 37.4359 74.3146 37.8544 74.3146 38.366C74.3146 38.7845 74.1704 39.138 73.8821 39.4263C73.5938 39.7053 73.1892 39.9006 72.6683 40.0122V40.0262C73.3287 40.1285 73.831 40.3424 74.1751 40.668C74.5285 40.9842 74.7052 41.3841 74.7052 41.8678Z" fill="#E6E6E6"/>
    <path d="M85.0937 43.1653C86.061 43.1653 86.9585 42.9002 87.7863 42.37L88.163 43.2071C87.2515 43.8024 86.1958 44.1 84.996 44.1C83.4614 44.1 82.2336 43.6257 81.3129 42.677C80.3921 41.7283 79.9317 40.4587 79.9317 38.8682C79.9317 37.2592 80.3874 35.985 81.2989 35.0456C82.2104 34.1062 83.4428 33.6365 84.996 33.6365C86.1958 33.6365 87.2515 33.9341 88.163 34.5294L87.7863 35.3664C86.9585 34.8363 86.061 34.5712 85.0937 34.5712C83.866 34.5712 82.8847 34.9619 82.1499 35.7431C81.4245 36.5151 81.0617 37.5568 81.0617 38.8682C81.0617 40.1797 81.4338 41.226 82.1778 42.0073C82.9312 42.7793 83.9032 43.1653 85.0937 43.1653Z" fill="#E6E6E6"/>
    <path d="M96.1057 37.5568H93.4549V43.9605H92.3527V37.5568H89.702V36.7058H96.1057V37.5568Z" fill="#E6E6E6"/>
    <path d="M102.967 36.7058H104.083L101.265 43.9605C100.782 45.2068 100.265 46.0532 99.7167 46.4996C99.1679 46.9461 98.3913 47.1693 97.3868 47.1693L97.331 46.3183C98.0844 46.3183 98.6657 46.1555 99.0749 45.83C99.4842 45.5137 99.8701 44.8906 100.233 43.9605L97.2891 36.7058H98.4331L100.763 42.7188H100.791L102.967 36.7058Z" fill="#E6E6E6"/>
    <path d="M107.007 43.1234H110.843V37.5429H107.844C107.844 38.4264 107.844 39.045 107.844 39.3984C107.844 39.7518 107.83 40.1657 107.802 40.6401C107.783 41.1051 107.76 41.4074 107.732 41.5469C107.713 41.6771 107.667 41.8631 107.593 42.105C107.518 42.3468 107.439 42.5235 107.355 42.6351C107.281 42.7374 107.165 42.9002 107.007 43.1234ZM105.793 43.1234C105.997 42.8723 106.142 42.6956 106.225 42.5933C106.309 42.4816 106.402 42.3049 106.504 42.0631C106.607 41.812 106.667 41.6213 106.686 41.4911C106.714 41.3516 106.742 41.0586 106.769 40.6122C106.807 40.1564 106.825 39.7472 106.825 39.3844C106.825 39.0124 106.825 38.3985 106.825 37.5429V36.7058H111.862V43.1234H112.838V45.6347H111.82V43.9605H106.142V45.6347H105.123V43.1234H105.793Z" fill="#E6E6E6"/>
    <path d="M115.5 42.5374H115.528L119.658 36.7058H120.802V43.9605H119.742V38.1288H119.728L115.584 43.9605H114.44V36.7058H115.5V42.5374Z" fill="#E6E6E6"/>
    <path d="M123.961 42.5374H123.989L128.119 36.7058H129.263V43.9605H128.202V38.1288H128.188L124.045 43.9605H122.901V36.7058H123.961V42.5374Z" fill="#E6E6E6"/>
    <path d="M136.664 34.7107V38.0312H141.226V38.924H136.664V43.0257H141.505V43.9605H135.547V33.776H141.505V34.7107H136.664Z" fill="#E6E6E6"/>
    <path d="M144.657 43.235C145.001 43.2908 145.377 43.3187 145.787 43.3187C147.34 43.3187 148.116 42.8118 148.116 41.798C148.116 40.8772 147.293 40.4168 145.647 40.4168H144.657V43.235ZM144.657 39.7193H145.633C146.303 39.7193 146.824 39.6077 147.196 39.3844C147.568 39.1612 147.754 38.8543 147.754 38.4636C147.754 37.7196 147.07 37.3475 145.703 37.3475C145.34 37.3475 144.991 37.3754 144.657 37.4312V39.7193ZM149.149 41.8678C149.149 43.328 148.014 44.0581 145.745 44.0581C144.917 44.0581 144.201 44.007 143.596 43.9047V36.7616C144.257 36.6593 144.936 36.6081 145.633 36.6081C146.759 36.6081 147.558 36.7755 148.033 37.1104C148.516 37.4359 148.758 37.8544 148.758 38.366C148.758 38.7845 148.614 39.138 148.326 39.4263C148.037 39.7053 147.633 39.9006 147.112 40.0122V40.0262C147.772 40.1285 148.275 40.3424 148.619 40.668C148.972 40.9842 149.149 41.3841 149.149 41.8678Z" fill="#E6E6E6"/>
    <path d="M150.817 36.7058H156.119V37.5847H151.891V43.9605H150.817V36.7058Z" fill="#E6E6E6"/>
    <path d="M158.283 39.9146H162.747C162.738 39.1054 162.543 38.4822 162.161 38.0451C161.78 37.608 161.254 37.3894 160.585 37.3894C159.887 37.3894 159.334 37.6126 158.925 38.0591C158.525 38.4962 158.311 39.1147 158.283 39.9146ZM158.283 40.7238C158.301 41.5143 158.543 42.1375 159.008 42.5933C159.473 43.049 160.078 43.2769 160.822 43.2769C161.538 43.2769 162.25 43.0909 162.956 42.7188L163.236 43.514C162.454 43.9047 161.617 44.1 160.724 44.1C159.683 44.1 158.841 43.7605 158.199 43.0816C157.557 42.4026 157.236 41.4864 157.236 40.3331C157.236 39.1612 157.534 38.2404 158.129 37.5708C158.734 36.9011 159.552 36.5663 160.585 36.5663C161.589 36.5663 162.366 36.8871 162.915 37.5289C163.473 38.1614 163.752 39.0729 163.752 40.2634C163.752 40.3843 163.742 40.5378 163.724 40.7238H158.283Z" fill="#E6E6E6"/>
    <path d="M166.511 40.4726V43.9605H165.422V36.7058H166.511V39.6635H170.626V36.7058H171.715V43.9605H170.626V40.4726H166.511Z" fill="#E6E6E6"/>
    <path d="M174.862 42.5374H174.89L179.019 36.7058H180.163V43.9605H179.103V38.1288H179.089L174.945 43.9605H173.801V36.7058H174.862V42.5374Z" fill="#E6E6E6"/>
    <path d="M183.922 40.5005C183.364 40.3796 182.904 40.1704 182.541 39.8727C182.188 39.5658 182.011 39.1566 182.011 38.645C182.011 37.2871 183.104 36.6081 185.29 36.6081C186.062 36.6081 186.815 36.6593 187.55 36.7616V43.9605H186.489V40.8493H185.527C185.015 40.8493 184.657 40.9144 184.453 41.0447C184.257 41.1656 184.034 41.4818 183.783 41.9933L182.848 43.9605H181.774L182.792 41.9096C183.016 41.4632 183.206 41.1423 183.364 40.947C183.532 40.7517 183.718 40.6122 183.922 40.5285V40.5005ZM186.489 40.0681V37.4871C186.117 37.4312 185.731 37.4033 185.332 37.4033C183.797 37.4033 183.03 37.8451 183.03 38.7287C183.03 39.6216 183.848 40.0681 185.485 40.0681H186.489Z" fill="#E6E6E6"/>
    <path d="M194.949 43.0397C195.414 43.142 195.911 43.1932 196.442 43.1932C198.404 43.1932 199.385 42.384 199.385 40.7656C199.385 39.2961 198.371 38.5613 196.344 38.5613C195.842 38.5613 195.377 38.5985 194.949 38.6729V43.0397ZM194.949 37.78C195.414 37.7056 195.911 37.6684 196.442 37.6684C197.772 37.6684 198.767 37.9335 199.427 38.4636C200.097 38.9938 200.432 39.7565 200.432 40.7517C200.432 42.9839 199.083 44.1 196.386 44.1C195.456 44.1 194.605 44.0256 193.833 43.8768V33.776H199.832V34.6828H194.949V37.78Z" fill="#E6E6E6"/>
    <path d="M204.75 36.5663C205.764 36.5663 206.489 36.7755 206.926 37.1941C207.364 37.6126 207.582 38.3009 207.582 39.2589V42.0073C207.582 42.6677 207.652 43.3187 207.791 43.9605H206.815C206.74 43.5978 206.694 43.1699 206.675 42.677H206.647C206.396 43.1234 206.034 43.4722 205.559 43.7233C205.085 43.9744 204.55 44.1 203.955 44.1C203.285 44.1 202.75 43.914 202.35 43.5419C201.95 43.1606 201.751 42.6491 201.751 42.0073C201.751 41.1981 202.104 40.5564 202.811 40.082C203.518 39.5984 204.522 39.3565 205.824 39.3565H206.564V39.2868C206.564 38.5799 206.429 38.0916 206.159 37.8219C205.899 37.5429 205.429 37.4033 204.75 37.4033C203.876 37.4033 203.062 37.6173 202.309 38.0451L202.127 37.222C202.927 36.7848 203.801 36.5663 204.75 36.5663ZM202.755 41.9654C202.755 42.384 202.885 42.7142 203.146 42.956C203.406 43.1885 203.755 43.3048 204.192 43.3048C204.834 43.3048 205.387 43.0769 205.852 42.6212C206.327 42.1561 206.564 41.5888 206.564 40.9191V40.1378H205.824C204.848 40.1378 204.09 40.3052 203.55 40.6401C203.02 40.9656 202.755 41.4074 202.755 41.9654Z" fill="#E6E6E6"/>
    <path d="M215.728 37.5568H213.077V43.9605H211.975V37.5568H209.324V36.7058H215.728V37.5568Z" fill="#E6E6E6"/>
    <path d="M217.4 36.7058H218.404V39.9146H220.162C220.227 38.8636 220.553 38.0451 221.138 37.4591C221.724 36.8639 222.487 36.5663 223.426 36.5663C224.431 36.5663 225.226 36.9011 225.812 37.5708C226.407 38.2404 226.705 39.1612 226.705 40.3331C226.705 41.505 226.407 42.4258 225.812 43.0955C225.226 43.7652 224.431 44.1 223.426 44.1C222.487 44.1 221.724 43.807 221.138 43.2211C220.553 42.6258 220.227 41.8027 220.162 40.7517H218.404V43.9605H217.4V36.7058ZM221.78 42.4956C222.18 43.0071 222.729 43.2629 223.426 43.2629C224.124 43.2629 224.668 43.0071 225.059 42.4956C225.459 41.984 225.659 41.2632 225.659 40.3331C225.659 39.403 225.459 38.6822 225.059 38.1707C224.668 37.6591 224.124 37.4033 223.426 37.4033C222.729 37.4033 222.18 37.6591 221.78 38.1707C221.38 38.6822 221.18 39.403 221.18 40.3331C221.18 41.2632 221.38 41.984 221.78 42.4956Z" fill="#E6E6E6"/>
    <path d="M229.483 39.7751L232.985 36.7058H234.324L230.292 40.1797L234.436 43.9605H233.11L229.483 40.5982H229.469V43.9605H228.381V36.7058H229.469V39.7751H229.483Z" fill="#E6E6E6"/>
    <path d="M240.766 38.1846C240.347 37.6638 239.77 37.4033 239.036 37.4033C238.301 37.4033 237.719 37.6638 237.292 38.1846C236.873 38.6962 236.664 39.4123 236.664 40.3331C236.664 41.2539 236.873 41.9747 237.292 42.4956C237.719 43.0071 238.301 43.2629 239.036 43.2629C239.77 43.2629 240.347 43.0071 240.766 42.4956C241.193 41.9747 241.407 41.2539 241.407 40.3331C241.407 39.4123 241.193 38.6962 240.766 38.1846ZM241.519 43.0816C240.896 43.7605 240.068 44.1 239.036 44.1C238.003 44.1 237.175 43.7605 236.552 43.0816C235.929 42.4026 235.617 41.4864 235.617 40.3331C235.617 39.1798 235.929 38.2637 236.552 37.5847C237.175 36.9057 238.003 36.5663 239.036 36.5663C240.068 36.5663 240.896 36.9057 241.519 37.5847C242.142 38.2637 242.454 39.1798 242.454 40.3331C242.454 41.4864 242.142 42.4026 241.519 43.0816Z" fill="#E6E6E6"/>
    <path d="M245.123 43.235C245.467 43.2908 245.844 43.3187 246.253 43.3187C247.806 43.3187 248.583 42.8118 248.583 41.798C248.583 40.8772 247.76 40.4168 246.113 40.4168H245.123V43.235ZM245.123 39.7193H246.099C246.769 39.7193 247.29 39.6077 247.662 39.3844C248.034 39.1612 248.22 38.8543 248.22 38.4636C248.22 37.7196 247.536 37.3475 246.169 37.3475C245.806 37.3475 245.458 37.3754 245.123 37.4312V39.7193ZM249.615 41.8678C249.615 43.328 248.48 44.0581 246.211 44.0581C245.383 44.0581 244.667 44.007 244.062 43.9047V36.7616C244.723 36.6593 245.402 36.6081 246.099 36.6081C247.225 36.6081 248.025 36.7755 248.499 37.1104C248.983 37.4359 249.224 37.8544 249.224 38.366C249.224 38.7845 249.08 39.138 248.792 39.4263C248.504 39.7053 248.099 39.9006 247.578 40.0122V40.0262C248.239 40.1285 248.741 40.3424 249.085 40.668C249.438 40.9842 249.615 41.3841 249.615 41.8678Z" fill="#E6E6E6"/>
    <path d="M253.934 36.5663C254.948 36.5663 255.673 36.7755 256.111 37.1941C256.548 37.6126 256.766 38.3009 256.766 39.2589V42.0073C256.766 42.6677 256.836 43.3187 256.975 43.9605H255.999C255.924 43.5978 255.878 43.1699 255.859 42.677H255.831C255.58 43.1234 255.218 43.4722 254.743 43.7233C254.269 43.9744 253.734 44.1 253.139 44.1C252.469 44.1 251.934 43.914 251.534 43.5419C251.135 43.1606 250.935 42.6491 250.935 42.0073C250.935 41.1981 251.288 40.5564 251.995 40.082C252.702 39.5984 253.706 39.3565 255.008 39.3565H255.748V39.2868C255.748 38.5799 255.613 38.0916 255.343 37.8219C255.083 37.5429 254.613 37.4033 253.934 37.4033C253.06 37.4033 252.246 37.6173 251.493 38.0451L251.311 37.222C252.111 36.7848 252.985 36.5663 253.934 36.5663ZM251.939 41.9654C251.939 42.384 252.069 42.7142 252.33 42.956C252.59 43.1885 252.939 43.3048 253.376 43.3048C254.018 43.3048 254.571 43.0769 255.036 42.6212C255.511 42.1561 255.748 41.5888 255.748 40.9191V40.1378H255.008C254.032 40.1378 253.274 40.3052 252.734 40.6401C252.204 40.9656 251.939 41.4074 251.939 41.9654Z" fill="#E6E6E6"/>
    <path fill-rule="evenodd" clip-rule="evenodd" d="M59.5575 0.189941L33.9914 54.4655L0.112793 23.8817L59.5575 0.189941ZM5.88717 24.9178L32.9673 49.3643L53.403 5.9803L5.88717 24.9178Z" fill="#E6E6E6"/>
</svg>
