<svg width="64" height="64" viewBox="0 0 64 64" fill="none" xmlns="http://www.w3.org/2000/svg">
    <path d="M23.8442 26.5641C24.3028 26.5641 24.663 26.1994 24.663 25.7353C24.663 20.166 27.9711 15.6575 31.9997 15.6575C36.0284 15.6575 39.3365 20.166 39.3365 25.7353C39.3365 26.1994 39.6967 26.5641 40.1553 26.5641C40.6138 26.5641 40.9741 26.1994 40.9741 25.7353C40.9741 19.271 36.9455 14 31.9997 14C27.054 14 23.0254 19.271 23.0254 25.7353C23.0254 26.1994 23.3857 26.5641 23.8442 26.5641Z" fill="white"/>
    <path fill-rule="evenodd" clip-rule="evenodd" d="M19.0486 24.7692L15.8457 49H48.1534L44.8389 24.7692H19.0486ZM34.1515 34.3711L31.9993 30.1538L29.8471 34.3711L25.1712 35.1147L28.517 38.4648L27.7793 43.1417L31.9993 40.9949L36.2193 43.1417L35.4816 38.4648L38.8274 35.1147L34.1515 34.3711Z" fill="white"/>
</svg>
