<svg width="64" height="64" viewBox="0 0 64 64" fill="none" xmlns="http://www.w3.org/2000/svg">
    <g clip-path="url(#clip0)">
        <rect x="-0.0292969" width="64" height="64" fill="url(#paint0_radial)"/>
        <path d="M49.5933 36.6949L47.2943 34.458L48.4822 33.3022C49.0243 32.7748 49.0243 31.9206 48.4822 31.3931L31.0124 14.3956C30.4702 13.8681 29.5923 13.8681 29.0502 14.3956L24.4525 18.869C23.9103 19.3965 23.9103 20.2507 24.4525 20.7782L41.9223 37.776C42.1933 38.0398 42.5474 38.1717 42.9034 38.1717C43.2593 38.1717 43.6134 38.0398 43.8844 37.776L45.3325 36.3671L46.6505 37.6495L41.4015 42.7557L30.9683 32.6042C30.9535 32.5883 30.9485 32.5675 30.9325 32.5519C30.3904 32.0244 29.5125 32.0244 28.9703 32.5519L26.8469 34.6179L25.8647 33.6626C25.3225 33.1351 24.4447 33.1351 23.9025 33.6626L13.4066 43.8774C12.8645 44.4049 12.8645 45.259 13.4066 45.7865L17.3306 49.6044C17.6016 49.8681 17.9557 50 18.3116 50C18.6676 50 19.0216 49.8681 19.2927 49.6044L29.791 39.39C30.0511 39.1368 30.1976 38.7931 30.1976 38.4354C30.1976 38.0769 30.0511 37.734 29.791 37.4808L28.8099 36.5267L29.9429 35.4243L40.4002 45.6001C40.4072 45.6073 40.4092 45.6168 40.4162 45.6236C40.6873 45.8873 41.0413 46.0192 41.3973 46.0192C41.7532 46.0192 42.1073 45.8873 42.3783 45.6236L49.5937 38.6044C50.1355 38.0765 50.1355 37.222 49.5933 36.6949ZM42.9034 34.9124L27.3953 19.8236L30.0313 17.2589L45.5393 32.3477L42.9034 34.9124Z" fill="white"/>
    </g>
    <defs>
        <radialGradient id="paint0_radial" cx="0" cy="0" r="1" gradientUnits="userSpaceOnUse" gradientTransform="translate(63.9707) rotate(127.632) scale(95.0738 117.145)">
            <stop stop-color="#00C2FF"/>
            <stop offset="1" stop-color="#0096FF"/>
        </radialGradient>
        <clipPath id="clip0">
            <rect width="64" height="64" fill="white"/>
        </clipPath>
    </defs>
</svg>
