<svg width="64" height="64" viewBox="0 0 64 64" fill="none" xmlns="http://www.w3.org/2000/svg">
    <g clip-path="url(#clip0)">
        <rect x="-0.0292969" width="64" height="64" fill="#7F00FF"/>
        <path d="M50.5933 36.6949L48.2943 34.458L49.4822 33.3022C50.0243 32.7748 50.0243 31.9206 49.4822 31.3931L32.0124 14.3956C31.4702 13.8681 30.5923 13.8681 30.0502 14.3956L25.4525 18.869C24.9103 19.3965 24.9103 20.2507 25.4525 20.7782L42.9223 37.776C43.1933 38.0398 43.5474 38.1717 43.9034 38.1717C44.2593 38.1717 44.6134 38.0398 44.8844 37.776L46.3325 36.3671L47.6505 37.6495L42.4015 42.7557L31.9683 32.6042C31.9535 32.5883 31.9485 32.5675 31.9325 32.5519C31.3904 32.0244 30.5125 32.0244 29.9703 32.5519L27.8469 34.6179L26.8647 33.6626C26.3225 33.1351 25.4447 33.1351 24.9025 33.6626L14.4066 43.8774C13.8645 44.4049 13.8645 45.259 14.4066 45.7865L18.3306 49.6044C18.6016 49.8681 18.9557 50 19.3116 50C19.6676 50 20.0216 49.8681 20.2927 49.6044L30.791 39.39C31.0511 39.1368 31.1976 38.7931 31.1976 38.4354C31.1976 38.0769 31.0511 37.734 30.791 37.4808L29.8099 36.5267L30.9429 35.4243L41.4002 45.6001C41.4072 45.6073 41.4092 45.6168 41.4162 45.6236C41.6873 45.8873 42.0413 46.0192 42.3973 46.0192C42.7532 46.0192 43.1073 45.8873 43.3783 45.6236L50.5937 38.6044C51.1355 38.0765 51.1355 37.222 50.5933 36.6949ZM43.9034 34.9124L28.3953 19.8236L31.0313 17.2589L46.5393 32.3477L43.9034 34.9124Z" fill="white"/>
    </g>
    <defs>
        <clipPath id="clip0">
            <rect width="64" height="64" fill="white"/>
        </clipPath>
    </defs>
</svg>
