<svg width="33" height="33" viewBox="0 0 33 33" fill="none" xmlns="http://www.w3.org/2000/svg">
    <rect width="33" height="33" rx="6" fill="white"/>
    <path d="M12.6754 24V21.7521H11V19.7143H12.6754V18.0756H11V15.4706H12.6754V9H17.4503C19.377 9 20.7801 9.39216 21.6597 10.1765C22.5532 10.9608 23 12.0392 23 13.4118C23 14.2241 22.8185 14.9874 22.4555 15.7017C22.0925 16.416 21.4852 16.9902 20.6335 17.4244C19.7958 17.8585 18.651 18.0756 17.199 18.0756H15.8377V19.7143H19.0628V21.7521H15.8377V24H12.6754ZM15.8377 15.4706H16.8848C17.7784 15.4706 18.4834 15.3165 19 15.0084C19.5305 14.7003 19.7958 14.2031 19.7958 13.5168C19.7958 12.2423 18.9581 11.605 17.2827 11.605H15.8377V15.4706Z" fill="#FF2E00"/>
</svg>
