<svg width="63" height="37" viewBox="0 0 63 37" fill="none" xmlns="http://www.w3.org/2000/svg">
    <path fill-rule="evenodd" clip-rule="evenodd" d="M31.8484 11.8909C31.5327 11.1406 31.0986 10.3901 30.5067 9.71875L30.1121 9.32379V0H31.8484V11.8909ZM39.6227 20.2243C36.8603 18.2891 32.6378 19.0789 31.4539 19.5529C34.0189 18.0521 38.0442 13.3127 40.1752 9.32385H36.7025C36.4607 9.74103 36.2013 10.2199 35.918 10.743C34.8602 12.6958 33.4687 15.2646 31.4144 17.5386C31.4933 16.9462 32.0458 8.8894 25.6133 8.8894C24.0347 8.8894 22.6141 9.5213 21.5486 10.5876C20.5225 11.6145 19.8911 12.9178 19.8911 14.4581C19.8911 16.5513 20.9566 17.9731 22.18 18.842C24.9424 20.7772 29.165 19.9873 30.3489 19.5134C27.7838 21.0536 23.7585 25.793 21.6275 29.7819H25.1003C25.256 29.5131 25.4192 29.2186 25.5913 28.9031C25.6862 28.7292 25.7839 28.549 25.8846 28.3631C26.9424 26.4102 28.3339 23.8412 30.3883 21.5671C30.3094 22.1595 29.7569 30.2164 36.1894 30.2164C37.7679 30.2164 39.1886 29.5844 40.2542 28.5181C41.2802 27.4912 41.9116 26.1879 41.9116 24.6476C41.8721 22.5544 40.8066 21.0931 39.6227 20.2243ZM29.2833 17.9731C28.1389 18.1706 25.2186 18.6445 23.1666 16.8278C22.4957 16.2354 22.1405 15.485 22.1405 14.4581C22.1405 12.4834 23.5217 11.1011 25.4949 11.1011C26.4025 11.1011 27.1129 11.4171 27.6653 11.97C29.3623 13.7077 29.3228 16.9462 29.2833 17.9731ZM36.3473 28.0046C35.4396 28.0046 34.7292 27.6887 34.1768 27.1358C32.4404 25.398 32.5193 22.1595 32.5588 21.1326C33.7032 20.9352 36.6235 20.4612 38.6756 22.278C39.3465 22.8704 39.7017 23.6208 39.7017 24.6476C39.7017 26.6224 38.3204 28.0046 36.3473 28.0046ZM21.509 19.8293C20.8381 19.3553 20.2462 18.7629 19.8121 18.131H0V19.8688L21.509 19.8293ZM37.689 18.131C38.6755 18.368 39.5437 18.7629 40.2935 19.2764C40.5303 19.4738 40.7671 19.6318 41.0038 19.8688H63V18.131H37.689ZM30.0725 27.4911C30.3882 28.1625 30.7828 28.834 31.2959 29.3869C31.4932 29.5449 31.6511 29.7028 31.8089 29.8608V36.9999H30.0725V27.4911Z" fill="white"/>
</svg>
