<svg width="25" height="25" viewBox="0 0 25 25" fill="none" xmlns="http://www.w3.org/2000/svg">
    <path fill-rule="evenodd" clip-rule="evenodd" d="M17.1002 3.4045C18.9191 4.34247 20.4784 5.82841 21.5034 7.77701C24.1618 12.8307 22.22 19.0825 17.1664 21.7409C12.1128 24.3992 5.86095 22.4575 3.20257 17.4039L1.37248 18.3665C4.56254 24.4309 12.0647 26.761 18.1291 23.5709C24.1935 20.3809 26.5235 12.8787 23.3335 6.81433C21.9054 4.09944 19.613 2.13296 16.9723 1.07512C15.4731 0.471486 13.9123 0.181899 12.3698 0.180908C10.7541 0.177338 9.11825 0.490191 7.55441 1.14811C5.69254 1.92754 4.0124 3.16205 2.6978 4.79311L2.24297 2.99515L0.238281 3.50227L1.62427 8.98122L7.16633 7.87424L6.7613 5.84646L4.08228 6.38156C5.02018 5.1293 6.20853 4.13685 7.53889 3.43873L7.53957 3.44002C7.82084 3.29206 8.10582 3.15835 8.39368 3.03864C10.8078 2.03977 13.5841 1.95692 16.1485 2.97291C16.4692 3.09996 16.7866 3.24418 17.0995 3.40595L17.1002 3.4045ZM8.60268 17.7572V19.8904H11.4882V17.7572H14.4311V15.8234H11.4882V14.2683H12.7303C14.0553 14.2683 15.0999 14.0623 15.8643 13.6503C16.6414 13.2383 17.1956 12.6934 17.5268 12.0155C17.8581 11.3377 18.0237 10.6133 18.0237 9.84243C18.0237 8.53991 17.616 7.5165 16.8007 6.7722C15.9981 6.02791 14.7177 5.65576 12.9597 5.65576H8.60268V11.7962H7.07392V14.2683H8.60268V15.8234H7.07392V17.7572H8.60268ZM12.4437 11.7962H11.4882V8.12789H12.8068C14.3355 8.12789 15.0999 8.73263 15.0999 9.94211C15.0999 10.5934 14.8579 11.0652 14.3738 11.3576C13.9024 11.65 13.259 11.7962 12.4437 11.7962Z" fill="white"/>
</svg>
