<svg width="81" height="94" viewBox="0 0 81 94" fill="none" xmlns="http://www.w3.org/2000/svg">
<path d="M6.69989 54.172C12.8587 54.172 17.8692 49.1615 17.8692 43.0027C17.8692 37.6801 14.1268 33.2146 9.1348 32.1006C10.0455 27.7029 13.9495 24.3871 18.6139 24.3871C23.9513 24.3871 28.294 28.7297 28.294 34.0672H32.7617C32.7617 26.2658 26.4153 19.9193 18.6139 19.9193C10.8124 19.9193 4.46601 26.2658 4.46601 34.0672V36.3011H6.69989C10.3955 36.3011 13.4015 39.3071 13.4015 43.0027C13.4015 46.6975 10.3955 49.7043 6.69989 49.7043V54.172Z" fill="#FBFBFB"/>
<path d="M14.8918 70.5538C17.4265 70.5538 19.7639 69.2819 21.1444 67.1531L35.497 44.9908C37.6051 41.7398 38.7198 37.9623 38.7198 34.0672C38.7198 22.9812 29.7009 13.9624 18.6149 13.9624C11.8627 13.9624 5.88038 17.2819 2.23321 22.3974V12.0181C6.81488 8.57947 12.4837 6.51611 18.6149 6.51611C33.8068 6.51611 46.166 18.8761 46.166 34.0672C46.166 39.4032 44.6373 44.5813 41.7452 49.0401L27.3933 71.2016C24.6337 75.4586 19.9605 78 14.8918 78C6.68011 78 -0.000659943 71.3192 -0.000659943 63.1075H7.44558C7.44558 67.2134 10.786 70.5538 14.8918 70.5538Z" fill="#FBFBFB"/>
</svg>
