<svg width="81" height="94" viewBox="0 0 81 94" fill="none" xmlns="http://www.w3.org/2000/svg">
<path d="M49.1288 54.5456C49.5114 53.8669 50.4886 53.8669 50.8712 54.5456L52.6319 57.6695C52.7746 57.9226 53.0204 58.1012 53.3053 58.1587L56.8204 58.8679C57.584 59.022 57.886 59.9515 57.3588 60.525L54.9319 63.1649C54.7352 63.3788 54.6413 63.6678 54.6747 63.9565L55.0864 67.5187C55.1758 68.2926 54.3852 68.867 53.6768 68.5428L50.4162 67.0505C50.1519 66.9295 49.8481 66.9295 49.5838 67.0505L46.3232 68.5428C45.6148 68.867 44.8242 68.2926 44.9136 67.5187L45.3253 63.9565C45.3587 63.6678 45.2648 63.3788 45.0681 63.1649L42.6412 60.525C42.114 59.9515 42.416 59.022 43.1796 58.8679L46.6947 58.1587C46.9796 58.1012 47.2254 57.9226 47.3681 57.6695L49.1288 54.5456Z" fill="#FBFBFB"/>
<rect x="1" y="59" width="16" height="10" rx="3" fill="#FBFBFB"/>
<rect x="21" y="33" width="16" height="36" rx="3" fill="#FBFBFB"/>
<rect x="42" y="15" width="16" height="36" rx="3" fill="#FBFBFB"/>
</svg>
