<svg width="81" height="94" viewBox="0 0 81 94" fill="none" xmlns="http://www.w3.org/2000/svg">
<path d="M50.1421 9H13.8629C4.89387 9 0.0566406 13.7906 0.0566406 22.8171V59.1249C0.0566406 68.5044 4.44038 72.9421 13.8629 72.9421H49.3863C58.6072 72.9421 63.1925 68.5044 63.1925 59.1249L63.9987 22.8171C63.9483 13.9923 59.0103 9 50.1421 9Z" fill="white"/>
<path d="M44.4121 42.7458C40.4079 39.9406 34.2871 41.0856 32.571 41.7726C36.2892 39.5971 42.1239 32.7273 45.2129 26.9453H40.179C38.5202 29.8077 36.2892 34.6738 32.5138 38.8529C32.6282 37.9942 33.4291 26.3156 24.105 26.3156C21.8169 26.3156 19.7576 27.2315 18.2131 28.7772C16.7258 30.2657 15.8105 32.1549 15.8105 34.3875C15.8105 37.4217 17.355 39.4826 19.1283 40.7421C23.1325 43.5472 29.2533 42.4023 30.9694 41.7153C27.2512 43.948 21.4164 50.8178 18.3275 56.5998H23.3613C25.0202 53.7374 27.2512 48.8713 31.0266 44.6922C30.9121 45.5509 30.1113 57.2296 39.4354 57.2296C41.7235 57.2296 43.7828 56.3136 45.3273 54.7679C46.8146 53.2794 47.7298 51.3902 47.7298 49.1576C47.6726 46.1234 46.1282 44.0052 44.4121 42.7458ZM29.4249 39.4826C27.766 39.7689 23.533 40.4558 20.5584 37.8224C19.5859 36.9637 19.0711 35.876 19.0711 34.3875C19.0711 31.5251 21.0732 29.5214 23.9334 29.5214C25.249 29.5214 26.2787 29.9794 27.0795 30.7809C29.5393 33.2998 29.4821 37.9942 29.4249 39.4826ZM39.6642 54.0237C38.3485 54.0237 37.3189 53.5657 36.518 52.7642C34.0011 50.2453 34.1155 45.5509 34.1727 44.0625C35.8316 43.7762 40.0646 43.0893 43.0392 45.7227C44.0116 46.5814 44.5265 47.6691 44.5265 49.1576C44.5265 52.02 42.5244 54.0237 39.6642 54.0237Z" fill="#952BFF"/>
<path d="M18.1565 42.1733C17.184 41.4863 16.326 40.6276 15.6968 39.7116H0V42.2305L18.1565 42.1733C18.2137 42.1733 18.2137 42.1733 18.1565 42.1733Z" fill="#942BFF"/>
<path d="M31.199 27.5177C32.057 28.491 32.6863 29.5787 33.1439 30.6664V9H30.627V26.9453C30.7986 27.117 31.0274 27.346 31.199 27.5177Z" fill="#9730FF"/>
<path d="M41.6094 39.7116C43.0395 40.0551 44.2979 40.6276 45.3848 41.3718C45.728 41.658 46.0712 41.887 46.4144 42.2305H63.567V39.7116H41.6094Z" fill="#952DFF"/>
<path d="M32.3436 56.0273C31.6 55.2259 31.0279 54.2526 30.5703 53.2794V72.9995H33.0872V56.7143C32.8584 56.4853 32.6296 56.2563 32.3436 56.0273Z" fill="#9328FF"/>
</svg>
