<svg width="81" height="98" viewBox="0 0 81 98" fill="none" xmlns="http://www.w3.org/2000/svg">
<path d="M24.203 95.9922L49.2304 91.4494C51.1197 91.1004 52.794 90.0174 53.8869 88.4372C54.9797 86.8571 55.4023 84.9083 55.062 83.0174L44.5241 24.9621C44.1756 23.0747 43.0944 21.4018 41.5166 20.3088C39.9388 19.2158 37.9927 18.7915 36.1031 19.1285L11.0757 23.6714C9.18584 24.0174 7.50994 25.0978 6.41465 26.6763C5.31935 28.2548 4.89384 30.2029 5.23121 32.0943L15.7691 90.1497C16.1182 92.04 17.201 93.7155 18.7812 94.8101C20.3614 95.9048 22.3105 96.3297 24.203 95.9922ZM26.573 87.0612C26.5204 86.7717 26.585 86.4732 26.7526 86.2313C26.9201 85.9895 27.1769 85.8241 27.4663 85.7716L42.5723 83.0296C42.8618 82.9771 43.1603 83.0417 43.4021 83.2092C43.6439 83.3768 43.8093 83.6335 43.8619 83.923L44.5137 87.5139C44.5662 87.8034 44.5016 88.1019 44.3341 88.3437C44.1665 88.5856 43.9098 88.751 43.6203 88.8035L28.5144 91.5454C28.2249 91.598 27.9264 91.5334 27.6846 91.3659C27.4427 91.1983 27.2773 90.9416 27.2248 90.6521L26.573 87.0612Z" fill="#FBFBFB"/>
<path d="M49.0075 20.9688L52.2502 20.1998C49.974 10.5789 41.874 9.43348 37.7919 10.1744L37.6719 10.1962L38.2662 13.4706C38.6135 13.3963 46.8432 11.9025 49.0075 20.9688Z" fill="#FBFBFB"/>
<path d="M55.2408 19.8376L58.4835 19.0686C54.1441 0.68998 36.7024 3.8559 36.5605 3.88165L37.1549 7.15606C37.7383 7.01634 51.6566 4.50125 55.2408 19.8376Z" fill="#FBFBFB"/>
</svg>
