<svg width="220" height="220" viewBox="0 0 220 220" fill="none" xmlns="http://www.w3.org/2000/svg">
    <path d="M6.782 199.4H16.592V201.326H9.086V204.422H12.812C14.324 204.422 15.47 204.74 16.25 205.376C17.042 206 17.438 206.906 17.438 208.094C17.438 209.342 17.006 210.308 16.142 210.992C15.278 211.664 14.048 212 12.452 212H6.782V199.4ZM12.326 210.2C13.226 210.2 13.91 210.026 14.378 209.678C14.846 209.33 15.08 208.826 15.08 208.166C15.08 206.87 14.162 206.222 12.326 206.222H9.086V210.2H12.326ZM19.7483 202.388H21.9983V208.724L27.3083 202.388H29.3603V212H27.1103V205.664L21.8183 212H19.7483V202.388ZM38.006 206.996C38.606 207.164 39.068 207.44 39.392 207.824C39.728 208.196 39.896 208.646 39.896 209.174C39.896 209.762 39.698 210.284 39.302 210.74C38.906 211.184 38.36 211.532 37.664 211.784C36.968 212.036 36.176 212.162 35.288 212.162C34.544 212.162 33.818 212.078 33.11 211.91C32.402 211.73 31.76 211.478 31.184 211.154L31.832 209.48C32.3 209.744 32.828 209.948 33.416 210.092C34.004 210.236 34.592 210.308 35.18 210.308C35.936 210.308 36.524 210.194 36.944 209.966C37.376 209.726 37.592 209.402 37.592 208.994C37.592 208.622 37.424 208.334 37.088 208.13C36.764 207.926 36.302 207.824 35.702 207.824H33.83V206.312H35.522C36.086 206.312 36.524 206.216 36.836 206.024C37.16 205.832 37.322 205.562 37.322 205.214C37.322 204.866 37.13 204.59 36.746 204.386C36.362 204.182 35.834 204.08 35.162 204.08C34.202 204.08 33.188 204.314 32.12 204.782L31.544 203.126C32.804 202.538 34.076 202.244 35.36 202.244C36.176 202.244 36.908 202.358 37.556 202.586C38.204 202.802 38.708 203.114 39.068 203.522C39.44 203.918 39.626 204.374 39.626 204.89C39.626 205.358 39.482 205.778 39.194 206.15C38.906 206.51 38.51 206.792 38.006 206.996ZM42.2308 202.388H44.4808V206.294H49.3228V202.388H51.5728V212H49.3228V208.202H44.4808V212H42.2308V202.388ZM63.5882 207.248C63.5882 207.404 63.5762 207.626 63.5522 207.914H56.0102C56.1422 208.622 56.4842 209.186 57.0362 209.606C57.6002 210.014 58.2962 210.218 59.1242 210.218C60.1802 210.218 61.0502 209.87 61.7342 209.174L62.9402 210.56C62.5082 211.076 61.9622 211.466 61.3022 211.73C60.6422 211.994 59.8982 212.126 59.0702 212.126C58.0142 212.126 57.0842 211.916 56.2802 211.496C55.4762 211.076 54.8522 210.494 54.4082 209.75C53.9762 208.994 53.7602 208.142 53.7602 207.194C53.7602 206.258 53.9702 205.418 54.3902 204.674C54.8222 203.918 55.4162 203.33 56.1722 202.91C56.9282 202.49 57.7802 202.28 58.7282 202.28C59.6642 202.28 60.4982 202.49 61.2302 202.91C61.9742 203.318 62.5502 203.9 62.9582 204.656C63.3782 205.4 63.5882 206.264 63.5882 207.248ZM58.7282 204.08C58.0082 204.08 57.3962 204.296 56.8922 204.728C56.4002 205.148 56.1002 205.712 55.9922 206.42H61.4462C61.3502 205.724 61.0562 205.16 60.5642 204.728C60.0722 204.296 59.4602 204.08 58.7282 204.08ZM70.4231 212.126C69.4271 212.126 68.5331 211.916 67.7411 211.496C66.9491 211.076 66.3311 210.494 65.8871 209.75C65.4431 208.994 65.2211 208.142 65.2211 207.194C65.2211 206.246 65.4431 205.4 65.8871 204.656C66.3311 203.912 66.9431 203.33 67.7231 202.91C68.5151 202.49 69.4151 202.28 70.4231 202.28C71.3711 202.28 72.1991 202.472 72.9071 202.856C73.6271 203.24 74.1671 203.792 74.5271 204.512L72.7991 205.52C72.5231 205.076 72.1751 204.746 71.7551 204.53C71.3471 204.302 70.8971 204.188 70.4051 204.188C69.5651 204.188 68.8691 204.464 68.3171 205.016C67.7651 205.556 67.4891 206.282 67.4891 207.194C67.4891 208.106 67.7591 208.838 68.2991 209.39C68.8511 209.93 69.5531 210.2 70.4051 210.2C70.8971 210.2 71.3471 210.092 71.7551 209.876C72.1751 209.648 72.5231 209.312 72.7991 208.868L74.5271 209.876C74.1551 210.596 73.6091 211.154 72.8891 211.55C72.1811 211.934 71.3591 212.126 70.4231 212.126Z" fill="#E6E6E6"/>
    <path d="M152.408 17.69H150.068V23H147.764V10.4H150.068V15.674H152.48L156.098 10.4H158.582L154.28 16.502L158.744 23H156.098L152.408 17.69ZM169.038 13.388V23H166.788V15.296H163.188L163.098 17.204C163.038 18.476 162.918 19.544 162.738 20.408C162.57 21.26 162.276 21.938 161.856 22.442C161.448 22.934 160.884 23.18 160.164 23.18C159.828 23.18 159.414 23.114 158.922 22.982L159.03 21.092C159.198 21.128 159.342 21.146 159.462 21.146C159.918 21.146 160.26 20.966 160.488 20.606C160.716 20.234 160.86 19.796 160.92 19.292C160.992 18.776 161.052 18.044 161.1 17.096L161.262 13.388H169.038ZM172.069 13.388H174.319V19.724L179.629 13.388H181.681V23H179.431V16.664L174.139 23H172.069V13.388ZM193.707 18.248C193.707 18.404 193.695 18.626 193.671 18.914H186.129C186.261 19.622 186.603 20.186 187.155 20.606C187.719 21.014 188.415 21.218 189.243 21.218C190.299 21.218 191.169 20.87 191.853 20.174L193.059 21.56C192.627 22.076 192.081 22.466 191.421 22.73C190.761 22.994 190.017 23.126 189.189 23.126C188.133 23.126 187.203 22.916 186.399 22.496C185.595 22.076 184.971 21.494 184.527 20.75C184.095 19.994 183.879 19.142 183.879 18.194C183.879 17.258 184.089 16.418 184.509 15.674C184.941 14.918 185.535 14.33 186.291 13.91C187.047 13.49 187.899 13.28 188.847 13.28C189.783 13.28 190.617 13.49 191.349 13.91C192.093 14.318 192.669 14.9 193.077 15.656C193.497 16.4 193.707 17.264 193.707 18.248ZM188.847 15.08C188.127 15.08 187.515 15.296 187.011 15.728C186.519 16.148 186.219 16.712 186.111 17.42H191.565C191.469 16.724 191.175 16.16 190.683 15.728C190.191 15.296 189.579 15.08 188.847 15.08ZM196.168 13.388H198.418V17.294H203.26V13.388H205.51V23H203.26V19.202H198.418V23H196.168V13.388ZM216.14 15.296H212.774V23H210.524V15.296H207.14V13.388H216.14V15.296Z" fill="#E6E6E6"/>
    <path d="M151.27 116.13C138.466 107.27 118.895 110.886 113.407 113.056C125.479 106.186 144.136 84.4888 154.013 66.2274C159.665 54.6881 162.03 47.9813 164.001 35.4038H146.88C145.511 47.4949 142.776 54.5063 137.917 66.2274C133.904 75.9101 125.479 90.6362 113.407 103.835C113.59 100.942 116.151 64.0577 86.5198 64.0577C79.2035 64.0577 72.6188 66.9506 67.6802 71.8324C62.9246 76.5333 59.998 82.3191 59.998 89.5514C59.998 99.1341 64.9366 105.643 70.6068 109.621C83.4104 118.48 108.469 112.695 108.469 112.695C108.469 112.695 101.009 161.693 135.356 161.693C142.673 161.693 149.258 158.8 154.196 153.918C158.952 149.217 161.878 143.251 161.878 136.199C161.878 126.617 156.94 119.927 151.27 116.13ZM103.347 105.643C98.0431 106.547 84.5078 108.717 74.9966 100.4C71.8871 97.6876 70.2409 94.2523 70.2409 89.5514C70.2409 80.5111 76.6428 74.1829 85.7882 74.1829C89.9951 74.1829 93.2875 75.6293 95.8482 78.1606C103.896 86.1161 103.53 100.942 103.347 105.643ZM136.088 151.568C131.881 151.568 128.589 150.121 126.028 147.59C117.98 139.635 118.346 124.809 118.529 120.108C123.833 119.204 137.368 117.034 146.88 125.351C149.989 128.063 151.635 131.498 151.635 136.199C151.635 145.24 145.234 151.568 136.088 151.568Z" fill="#7F00FF"/>
    <path d="M70.6062 109.621C83.4098 118.48 102.981 114.864 108.468 112.695C96.3963 119.565 77.7396 141.262 67.8625 159.523C62.2103 171.063 59.846 177.769 57.8749 190.347L74.996 190.347C76.3647 178.256 79.1 171.244 83.9585 159.523C87.9721 149.841 96.3963 135.115 108.468 121.916C108.468 118.478 108.637 115.4 111.022 112.695C105.531 99.1883 102.083 62.7205 86.5192 64.0578C79.2029 64.0578 72.6182 66.9507 67.6796 71.8324C62.924 76.5334 59.9974 82.5 59.9974 89.5514C59.9974 99.1341 64.936 105.824 70.6062 109.621ZM85.7876 74.1829C89.9945 74.1829 93.2869 75.6294 95.8476 78.1606C103.896 86.1161 103.53 100.942 103.347 105.643C98.0425 106.547 84.5072 108.717 74.996 100.4C71.8865 97.6877 70.2403 94.2524 70.2403 89.5514C70.2403 80.5111 76.6422 74.1829 85.7876 74.1829Z" fill="#7F00FF"/>
    <path d="M72.1808 91.3104C69.9015 83.16 74.2176 66.1801 93.9142 64.1425" stroke="#2D2D2D" stroke-width="2.7168" stroke-linecap="round"/>
    <path d="M150.415 134.779C152.694 142.93 148.378 159.91 128.681 161.947" stroke="#2D2D2D" stroke-width="2.7168" stroke-linecap="round"/>
</svg>
