<svg width="64" height="64" viewBox="0 0 64 64" fill="none" xmlns="http://www.w3.org/2000/svg">
<rect width="64" height="64" fill="#7F00FF"/>
<path d="M38.1553 26.3075C35.7673 26.3075 33.5702 26.99 31.6598 28.2575L31.5643 28.355C31.4688 28.355 31.3732 28.4525 31.2777 28.55C28.3165 30.695 26.3105 34.205 26.3105 38.2025C26.3105 38.7875 26.3105 39.275 26.4061 39.86C26.5016 40.64 26.6926 41.42 26.9792 42.1025C27.6479 43.955 28.7941 45.71 30.227 46.9775C30.9911 47.66 31.9464 48.3425 32.9971 48.83C34.5255 49.61 36.3404 50 38.0598 50C44.5553 50 49.9046 44.6375 49.9046 38.105C50.0001 31.5725 44.6508 26.3075 38.1553 26.3075ZM40.6389 33.9125C40.5434 34.1075 40.3523 34.3025 40.2568 34.4C40.0658 34.595 39.8747 34.6925 39.6837 34.79C39.4926 34.8875 39.3016 34.8875 39.1105 34.8875C38.9195 34.8875 38.7285 34.8875 38.5374 34.79C38.3464 34.6925 38.1553 34.595 38.0598 34.4C37.8688 34.205 37.7732 34.1075 37.7732 33.9125C37.6777 33.7175 37.6777 33.5225 37.6777 33.3275C37.6777 33.1325 37.7732 32.9375 37.8688 32.7425C37.9643 32.5475 38.0598 32.3525 38.2508 32.255C38.4419 32.1575 38.6329 31.9625 38.824 31.865C39.015 31.7675 39.2061 31.7675 39.3971 31.7675C39.5882 31.7675 39.7792 31.7675 39.9702 31.865C40.1613 31.9625 40.3523 32.06 40.4479 32.255C40.5434 32.45 40.6389 32.5475 40.8299 32.7425C40.9255 32.9375 40.9255 33.1325 40.9255 33.3275C40.9255 33.5225 40.7344 33.7175 40.6389 33.9125ZM41.7852 31.67C41.7852 31.475 41.8807 31.28 41.9762 31.085C42.0717 30.89 42.1673 30.695 42.3583 30.5975C42.5494 30.5 42.7404 30.305 42.9314 30.2075C43.1225 30.11 43.3135 30.11 43.5046 30.11C43.6956 30.11 43.8867 30.11 44.0777 30.2075C44.2688 30.305 44.4598 30.4025 44.5553 30.5975C44.7464 30.7925 44.8419 30.89 44.8419 31.085C44.9374 31.28 44.9374 31.475 44.9374 31.67C44.9374 31.865 44.8419 32.06 44.7464 32.255C44.6508 32.45 44.4598 32.645 44.3643 32.7425C44.2688 32.84 43.9822 33.035 43.7911 33.1325C43.6001 33.23 43.4091 33.23 43.218 33.23C43.027 33.23 42.8359 33.23 42.6449 33.1325C42.4538 33.035 42.2628 32.9375 42.1673 32.7425C41.9762 32.5475 41.8807 32.45 41.8807 32.255C41.7852 32.06 41.7852 31.865 41.7852 31.67ZM45.224 38.2025C45.1285 38.3975 45.0329 38.5925 44.8419 38.69C44.6508 38.885 44.4598 38.9825 44.2688 39.08C44.0777 39.1775 43.8867 39.1775 43.6956 39.1775C43.5046 39.1775 43.3135 39.1775 43.1225 39.08C42.9314 38.9825 42.7404 38.885 42.6449 38.69C42.4538 38.495 42.3583 38.3975 42.3583 38.2025C42.2628 38.0075 42.2628 37.8125 42.2628 37.6175C42.2628 37.4225 42.3583 37.2275 42.4538 37.0325C42.5494 36.8375 42.6449 36.6425 42.8359 36.545C43.027 36.35 43.218 36.2525 43.4091 36.155C43.6001 36.0575 43.7911 36.0575 43.9822 36.0575C44.1732 36.0575 44.3643 36.0575 44.5553 36.155C44.7464 36.2525 44.9374 36.35 45.0329 36.545C45.224 36.74 45.3195 36.8375 45.3195 37.0325C45.415 37.2275 45.415 37.4225 45.415 37.6175C45.3195 37.8125 45.3195 38.0075 45.224 38.2025Z" fill="white"/>
<path d="M18.1911 40.25C18.7643 44.54 20.3881 47.1725 21.6299 48.83H29.4628C29.3672 48.7325 29.1762 48.635 29.0807 48.5375C27.3613 47.075 26.024 45.125 25.2598 42.8825C24.8777 42.005 24.6866 41.1275 24.5911 40.1525C24.4956 39.47 24.4001 38.885 24.4001 38.2025C24.4001 33.815 26.4061 29.915 29.5583 27.4775C29.5583 27.4775 29.5583 27.4775 29.5583 27.38C29.3672 26.99 29.1762 26.6 28.9852 26.3075C27.4568 23.87 26.5016 20.555 27.8389 17.63C27.9344 17.3375 28.1255 16.7525 28.1255 15.9725C28.221 15.1925 28.1255 14.4125 27.9344 13.6325C27.7434 12.8525 27.4568 12.2675 26.9792 11.78C26.5971 11.2925 25.9284 11 24.9732 11C24.018 11 23.3493 11.2925 22.9672 11.6825C22.4896 12.0725 22.2031 12.755 22.012 13.4375C21.7255 14.9975 21.9165 16.7525 22.2031 17.5325C23.4449 20.4575 22.2986 23.5775 20.9613 26.21C18.5732 31.085 17.618 36.0575 18.1911 40.25Z" fill="white"/>
</svg>
