<svg width="64" height="64" viewBox="0 0 64 64" fill="none" xmlns="http://www.w3.org/2000/svg">
    <path d="M38.1553 27.3075C35.7673 27.3075 33.5702 27.99 31.6598 29.2575L31.5643 29.355C31.4688 29.355 31.3732 29.4525 31.2777 29.55C28.3165 31.695 26.3105 35.205 26.3105 39.2025C26.3105 39.7875 26.3105 40.275 26.4061 40.86C26.5016 41.64 26.6926 42.42 26.9792 43.1025C27.6479 44.955 28.7941 46.71 30.227 47.9775C30.9911 48.66 31.9464 49.3425 32.9971 49.83C34.5255 50.61 36.3404 51 38.0598 51C44.5553 51 49.9046 45.6375 49.9046 39.105C50.0001 32.5725 44.6508 27.3075 38.1553 27.3075ZM40.6389 34.9125C40.5434 35.1075 40.3523 35.3025 40.2568 35.4C40.0658 35.595 39.8747 35.6925 39.6837 35.79C39.4926 35.8875 39.3016 35.8875 39.1105 35.8875C38.9195 35.8875 38.7285 35.8875 38.5374 35.79C38.3464 35.6925 38.1553 35.595 38.0598 35.4C37.8688 35.205 37.7732 35.1075 37.7732 34.9125C37.6777 34.7175 37.6777 34.5225 37.6777 34.3275C37.6777 34.1325 37.7732 33.9375 37.8688 33.7425C37.9643 33.5475 38.0598 33.3525 38.2508 33.255C38.4419 33.1575 38.6329 32.9625 38.824 32.865C39.015 32.7675 39.2061 32.7675 39.3971 32.7675C39.5882 32.7675 39.7792 32.7675 39.9702 32.865C40.1613 32.9625 40.3523 33.06 40.4479 33.255C40.5434 33.45 40.6389 33.5475 40.8299 33.7425C40.9255 33.9375 40.9255 34.1325 40.9255 34.3275C40.9255 34.5225 40.7344 34.7175 40.6389 34.9125ZM41.7852 32.67C41.7852 32.475 41.8807 32.28 41.9762 32.085C42.0717 31.89 42.1673 31.695 42.3583 31.5975C42.5494 31.5 42.7404 31.305 42.9314 31.2075C43.1225 31.11 43.3135 31.11 43.5046 31.11C43.6956 31.11 43.8867 31.11 44.0777 31.2075C44.2688 31.305 44.4598 31.4025 44.5553 31.5975C44.7464 31.7925 44.8419 31.89 44.8419 32.085C44.9374 32.28 44.9374 32.475 44.9374 32.67C44.9374 32.865 44.8419 33.06 44.7464 33.255C44.6508 33.45 44.4598 33.645 44.3643 33.7425C44.2688 33.84 43.9822 34.035 43.7911 34.1325C43.6001 34.23 43.4091 34.23 43.218 34.23C43.027 34.23 42.8359 34.23 42.6449 34.1325C42.4538 34.035 42.2628 33.9375 42.1673 33.7425C41.9762 33.5475 41.8807 33.45 41.8807 33.255C41.7852 33.06 41.7852 32.865 41.7852 32.67ZM45.224 39.2025C45.1285 39.3975 45.0329 39.5925 44.8419 39.69C44.6508 39.885 44.4598 39.9825 44.2688 40.08C44.0777 40.1775 43.8867 40.1775 43.6956 40.1775C43.5046 40.1775 43.3135 40.1775 43.1225 40.08C42.9314 39.9825 42.7404 39.885 42.6449 39.69C42.4538 39.495 42.3583 39.3975 42.3583 39.2025C42.2628 39.0075 42.2628 38.8125 42.2628 38.6175C42.2628 38.4225 42.3583 38.2275 42.4538 38.0325C42.5494 37.8375 42.6449 37.6425 42.8359 37.545C43.027 37.35 43.218 37.2525 43.4091 37.155C43.6001 37.0575 43.7911 37.0575 43.9822 37.0575C44.1732 37.0575 44.3643 37.0575 44.5553 37.155C44.7464 37.2525 44.9374 37.35 45.0329 37.545C45.224 37.74 45.3195 37.8375 45.3195 38.0325C45.415 38.2275 45.415 38.4225 45.415 38.6175C45.3195 38.8125 45.3195 39.0075 45.224 39.2025Z" fill="white"/>
    <path d="M18.1911 41.25C18.7643 45.54 20.3881 48.1725 21.6299 49.83H29.4628C29.3672 49.7325 29.1762 49.635 29.0807 49.5375C27.3613 48.075 26.024 46.125 25.2598 43.8825C24.8777 43.005 24.6866 42.1275 24.5911 41.1525C24.4956 40.47 24.4001 39.885 24.4001 39.2025C24.4001 34.815 26.4061 30.915 29.5583 28.4775C29.5583 28.4775 29.5583 28.4775 29.5583 28.38C29.3672 27.99 29.1762 27.6 28.9852 27.3075C27.4568 24.87 26.5016 21.555 27.8389 18.63C27.9344 18.3375 28.1255 17.7525 28.1255 16.9725C28.221 16.1925 28.1255 15.4125 27.9344 14.6325C27.7434 13.8525 27.4568 13.2675 26.9792 12.78C26.5971 12.2925 25.9284 12 24.9732 12C24.018 12 23.3493 12.2925 22.9672 12.6825C22.4896 13.0725 22.2031 13.755 22.012 14.4375C21.7255 15.9975 21.9165 17.7525 22.2031 18.5325C23.4449 21.4575 22.2986 24.5775 20.9613 27.21C18.5732 32.085 17.618 37.0575 18.1911 41.25Z" fill="white"/>
</svg>
