<svg width="64" height="64" viewBox="0 0 64 64" fill="none" xmlns="http://www.w3.org/2000/svg">
    <g clip-path="url(#clip0)">
        <rect x="-0.0292969" width="64" height="64" fill="url(#paint0_radial)"/>
        <path d="M52.4589 21H10.6908C10.3188 21 10 21.3188 10 21.6908V24.8261C10 25.0918 10.1594 25.3575 10.372 25.4638C12.7101 26.686 14.3043 29.1836 14.3043 32C14.3043 34.8164 12.7101 37.2609 10.372 38.5362C10.1594 38.6425 10 38.9082 10 39.1739V42.3092C10 42.6812 10.3188 43 10.6908 43H52.5121C52.8841 43 53.2029 42.6812 53.2029 42.3092V39.1739C53.2029 38.9082 53.0435 38.6425 52.8309 38.5362C50.4928 37.314 48.8986 34.8164 48.8986 32C48.8986 29.1836 50.4928 26.7391 52.8309 25.4638C53.0435 25.3575 53.2029 25.0918 53.2029 24.8261V21.6908C53.2029 21.3188 52.8841 21 52.4589 21ZM39.1208 30.0338C38.2705 30.8841 37.2609 31.5217 36.1449 31.9469L30.7778 33.9662C29.6087 34.3913 28.4396 34.7101 27.2174 34.9227L25.3044 35.2415L22.7536 34.0193L24.1353 33.4879L26.5797 33.5942L30.087 32L25.6232 29.715L26.7923 29.2899L33.4879 30.4589L36.942 28.8647L38.7488 29.1304C39.2802 29.1836 39.4396 29.715 39.1208 30.0338Z" fill="white"/>
    </g>
    <defs>
        <radialGradient id="paint0_radial" cx="0" cy="0" r="1" gradientUnits="userSpaceOnUse" gradientTransform="translate(63.9707) rotate(127.632) scale(95.0738 117.145)">
            <stop stop-color="#00C2FF"/>
            <stop offset="1" stop-color="#0096FF"/>
        </radialGradient>
        <clipPath id="clip0">
            <rect width="64" height="64" fill="white"/>
        </clipPath>
    </defs>
</svg>
