<svg xmlns="http://www.w3.org/2000/svg" viewBox="0 0 600 600" width="600" height="600" preserveAspectRatio="xMidYMid meet" style="width: 100%; height: 100%;"><defs><clipPath id="animationMask_3tzDtr3gkU"><rect width="600" height="600" x="0" y="0"></rect></clipPath></defs><g clip-path="url(#animationMask_3tzDtr3gkU)"><g transform="matrix(1,0,0,1,300.5,300.5)" opacity="1" style="user-select: none; display: block;"><g opacity="1" transform="matrix(1,0,0,1,-0.5,-0.5)"><path stroke-linecap="round" stroke-linejoin="miter" fill-opacity="0" stroke-miterlimit="4" stroke="rgb(0,194,255)" stroke-opacity="1" stroke-width="6" d=" M-19.38599967956543,-11.420000076293945 C-15.470000267028809,-18.048999786376953 -8.25100040435791,-22.5 0,-22.5 C0,-22.5 0,-22.5 0,-22.5 C12.345999717712402,-22.5 22.382999420166016,-12.534000396728516 22.499000549316406,-0.2160000056028366" style="display: block;"></path></g></g><g transform="matrix(1.5,0,0,1.5,300.5,300.5)" opacity="1" style="user-select: none; display: block;"><g opacity="1" transform="matrix(1,0,0,1,-0.5,-0.5)"><path stroke-linecap="round" stroke-linejoin="miter" fill-opacity="0" stroke-miterlimit="4" style="display: block;" stroke="rgb(0,194,255)" stroke-opacity="1" stroke-width="4" d=" M-21.5310001373291,-6.547999858856201 C-18.724000930786133,-15.777000427246094 -10.140000343322754,-22.5 0,-22.5 C0,-22.5 0,-22.5 0,-22.5 C12.156999588012695,-22.5 22.075000762939453,-12.836999893188477 22.48699951171875,-0.7799999713897705"></path></g></g><g transform="matrix(2,0,0,2,300.5,300.5)" opacity="1" style="user-select: none; display: block;"><g opacity="1" transform="matrix(1,0,0,1,-0.5,-0.5)"><path stroke-linecap="round" stroke-linejoin="miter" fill-opacity="0" stroke-miterlimit="4" style="display: block;" stroke="rgb(0,194,255)" stroke-opacity="1" stroke-width="3" d=" M-22.20199966430664,-3.6649999618530273 C-20.450000762939453,-14.342000007629395 -11.170000076293945,-22.5 0,-22.5 C0,-22.5 0,-22.5 0,-22.5 C11.803000450134277,-22.5 21.496000289916992,-13.392000198364258 22.427000045776367,-1.8270000219345093"></path></g></g><g transform="matrix(2.5,0,0,2.5,300.5,300.5)" opacity="1" style="user-select: none; display: block;"><g opacity="1" transform="matrix(1,0,0,1,-0.5,-0.5)"><path stroke-linecap="round" stroke-linejoin="miter" fill-opacity="0" stroke-miterlimit="4" style="display: block;" stroke="rgb(0,194,255)" stroke-opacity="1" stroke-width="2.5" d=" M-22.422000885009766,-1.8880000114440918 C-21.461999893188477,-13.423999786376953 -11.781999588012695,-22.5 0,-22.5 C0,-22.5 0,-22.5 0,-22.5 C11.204000473022461,-22.5 20.506999969482422,-14.291999816894531 22.218000411987305,-3.565999984741211"></path></g></g><g transform="matrix(3,0,0,3,300.5,300.5)" opacity="1" style="user-select: none; display: block;"><g opacity="1" transform="matrix(1,0,0,1,-0.5,-0.5)"><path stroke-linecap="round" stroke-linejoin="miter" fill-opacity="0" stroke-miterlimit="4" style="display: block;" stroke="rgb(0,194,255)" stroke-opacity="1" stroke-width="2" d=" M-22.485000610351562,-0.8149999976158142 C-22.055999755859375,-12.855999946594238 -12.145000457763672,-22.5 0,-22.5 C0,-22.5 0,-22.5 0,-22.5 C10.199000358581543,-22.5 18.822999954223633,-15.697999954223633 21.57900047302246,-6.38700008392334"></path></g></g></g></svg>
