<svg width="64" height="64" viewBox="0 0 64 64" fill="none" xmlns="http://www.w3.org/2000/svg">
<rect width="64" height="64" fill="#7F00FF"/>
<g clip-path="url(#clip0)">
<path d="M47.0676 21.0094C45.1757 19.1285 42.6216 18 39.8784 18C36.6622 18 34.1081 20.2571 32.8784 21.5737C32.6892 21.7618 32.4054 21.7618 32.2162 21.5737C30.6081 19.9749 28.1486 18 25.1216 18C22.473 18 19.9189 19.0345 17.9324 21.0094C15.9459 22.9843 15 25.4295 15 28.1567C15 37.373 29.0946 46.1191 31.9324 47.8119L32.027 47.906C32.3108 48.094 32.6892 48.094 32.973 47.906C33.1622 47.8119 50 38.2194 50 28.2508C50 25.4295 48.9595 22.8903 47.0676 21.0094ZM39.6892 34.3636H33.9189V40.1003H31.0811V34.3636H25.3108V31.5423H31.0811V25.8056H33.9189V31.5423H39.6892V34.3636Z" fill="white"/>
</g>
<defs>
<clipPath id="clip0">
<rect width="35" height="30" fill="white" transform="translate(15 18)"/>
</clipPath>
</defs>
</svg>
