<svg width="64" height="64" viewBox="0 0 64 64" fill="none" xmlns="http://www.w3.org/2000/svg">
<g clip-path="url(#clip0)">
<path d="M46.0676 20.0094C44.1757 18.1285 41.6216 17 38.8784 17C35.6622 17 33.1081 19.2571 31.8784 20.5737C31.6892 20.7618 31.4054 20.7618 31.2162 20.5737C29.6081 18.9749 27.1486 17 24.1216 17C21.473 17 18.9189 18.0345 16.9324 20.0094C14.9459 21.9843 14 24.4295 14 27.1567C14 36.373 28.0946 45.1191 30.9324 46.8119L31.027 46.906C31.3108 47.094 31.6892 47.094 31.973 46.906C32.1622 46.8119 49 37.2194 49 27.2508C49 24.4295 47.9595 21.8903 46.0676 20.0094ZM38.6892 33.3636H32.9189V39.1003H30.0811V33.3636H24.3108V30.5423H30.0811V24.8056H32.9189V30.5423H38.6892V33.3636Z" fill="#00C2FF"/>
</g>
<defs>
<clipPath id="clip0">
<rect width="35" height="30" fill="white" transform="translate(14 17)"/>
</clipPath>
</defs>
</svg>
