<svg width="1400" height="556" viewBox="0 0 1400 556" fill="none" xmlns="http://www.w3.org/2000/svg">
    <path d="M18.092 9.16697L9.89691 16.5653C3.59611 22.2535 7.12722e-06 30.3447 7.01213e-06 38.8333L0 526C0 542.569 13.4315 556 30 556L1369.92 556C1386.52 556 1399.96 542.517 1399.91 525.915L1398.54 39.0274C1398.51 30.4261 1394.8 22.249 1388.34 16.5727L1379.47 8.78578C1368.96 -0.449879 1353.45 -1.18883 1342.11 7.00492L1334.79 12.2873C1323.96 20.1124 1309.26 19.8264 1298.73 11.586L1292.58 6.76401C1282.14 -1.40521 1267.59 -1.76393 1256.77 5.8815L1248.33 11.844C1236.99 19.8521 1221.65 19.0406 1211.22 9.88185L1210.7 9.42544C1199.86 -0.0992551 1183.77 -0.552819 1172.4 8.34583L1169.22 10.8365C1158.26 19.4263 1142.82 19.3346 1131.95 10.6152L1128.02 7.4587C1117.4 -1.06345 1102.37 -1.36444 1091.42 6.72558L1084.36 11.9422C1073.51 19.9536 1058.65 19.7442 1048.03 11.4304L1043.22 7.66353C1032.26 -0.926283 1016.82 -0.834631 1005.95 7.88481L1001.63 11.3543C991.191 19.7294 976.47 20.1796 965.541 12.4581L957.294 6.63185C945.98 -1.36208 930.659 -0.552013 920.251 8.59051C909.168 18.3251 892.648 18.5399 881.316 9.09672L880.62 8.51663C869.758 -0.535227 854.05 -0.773742 842.917 7.94414L839.886 10.3181C828.645 19.1217 812.728 18.673 802 9.25C791.272 -0.172961 775.355 -0.62168 764.114 8.18192L760.387 11.1009C749.574 19.5687 734.392 19.6127 723.53 11.2079L718.041 6.96024C707.38 -1.28955 692.525 -1.41512 681.726 6.65326L674.56 12.0069C663.862 19.9997 649.169 19.9589 638.515 11.9069L631.914 6.91731C621.058 -1.28723 606.041 -1.15836 595.328 7.23123L591.568 10.1758C580.276 19.0187 564.246 18.4017 553.668 8.71715C543.613 -0.488343 528.541 -1.55461 517.29 6.14353L506.918 13.2403C496.226 20.5561 482.045 20.1816 471.754 12.3118L465.652 7.64551C454.466 -0.90818 438.837 -0.531093 428.077 8.55208L426.642 9.76353C415.783 18.9303 399.982 19.2205 388.793 10.4585L384.778 7.31436C374.016 -1.11402 358.917 -1.20102 348.058 7.10277L342.906 11.0427C331.833 19.5103 316.386 19.2351 305.621 10.3783L303.934 8.99011C292.694 -0.258307 276.436 -0.103347 265.374 9.35763L264.944 9.72563C254.188 18.9252 238.465 19.3553 227.221 10.7575L222.906 7.45734C211.833 -1.01035 196.386 -0.735102 185.621 8.12171L182.879 10.3783C172.114 19.2351 156.667 19.5103 145.594 11.0427L140.669 7.27655C129.705 -1.10787 114.435 -0.92922 103.67 7.70943L99.2225 11.2782C88.7411 19.6892 73.945 20.1036 63.0093 12.2924L55.6322 7.02301C44.1678 -1.16589 28.5496 -0.273921 18.092 9.16697Z" fill="url(#paint0_linear)"/>
    <defs>
        <linearGradient id="paint0_linear" x1="671.837" y1="509.368" x2="962.003" y2="147.421" gradientUnits="userSpaceOnUse">
            <stop stop-color="#FF4921"/>
            <stop offset="1" stop-color="#FF6B3D"/>
        </linearGradient>
    </defs>
</svg>
