<svg width="334" height="171" viewBox="0 0 334 171" fill="none" xmlns="http://www.w3.org/2000/svg">
    <path d="M148.74 15.202C149.711 15.202 150.611 14.936 151.442 14.404L151.82 15.244C150.905 15.8413 149.846 16.14 148.642 16.14C147.102 16.14 145.87 15.664 144.946 14.712C144.022 13.76 143.56 12.486 143.56 10.89C143.56 9.27533 144.017 7.99667 144.932 7.054C145.847 6.11133 147.083 5.64 148.642 5.64C149.846 5.64 150.905 5.93867 151.82 6.536L151.442 7.376C150.611 6.844 149.711 6.578 148.74 6.578C147.508 6.578 146.523 6.97 145.786 7.754C145.058 8.52867 144.694 9.574 144.694 10.89C144.694 12.206 145.067 13.256 145.814 14.04C146.57 14.8147 147.545 15.202 148.74 15.202ZM155.184 15.16H159.034V9.56H156.024C156.024 10.4467 156.024 11.0673 156.024 11.422C156.024 11.7767 156.01 12.192 155.982 12.668C155.964 13.1347 155.94 13.438 155.912 13.578C155.894 13.7087 155.847 13.8953 155.772 14.138C155.698 14.3807 155.618 14.558 155.534 14.67C155.46 14.7727 155.343 14.936 155.184 15.16ZM153.966 15.16C154.172 14.908 154.316 14.7307 154.4 14.628C154.484 14.516 154.578 14.3387 154.68 14.096C154.783 13.844 154.844 13.6527 154.862 13.522C154.89 13.382 154.918 13.088 154.946 12.64C154.984 12.1827 155.002 11.772 155.002 11.408C155.002 11.0347 155.002 10.4187 155.002 9.56V8.72H160.056V15.16H161.036V17.68H160.014V16H154.316V17.68H153.294V15.16H153.966ZM163.204 11.94H167.684C167.674 11.128 167.478 10.5027 167.096 10.064C166.713 9.62533 166.186 9.406 165.514 9.406C164.814 9.406 164.258 9.63 163.848 10.078C163.446 10.5167 163.232 11.1373 163.204 11.94ZM163.204 12.752C163.222 13.5453 163.465 14.1707 163.932 14.628C164.398 15.0853 165.005 15.314 165.752 15.314C166.47 15.314 167.184 15.1273 167.894 14.754L168.174 15.552C167.39 15.944 166.55 16.14 165.654 16.14C164.608 16.14 163.764 15.7993 163.12 15.118C162.476 14.4367 162.154 13.5173 162.154 12.36C162.154 11.184 162.452 10.26 163.05 9.588C163.656 8.916 164.478 8.58 165.514 8.58C166.522 8.58 167.301 8.902 167.852 9.546C168.412 10.1807 168.692 11.0953 168.692 12.29C168.692 12.4113 168.682 12.5653 168.664 12.752H163.204ZM171.544 12.304V8.72H176.934V16H175.898V9.588H172.552V12.472C172.552 13.8627 172.352 14.8053 171.95 15.3C171.549 15.7947 170.784 16.0747 169.654 16.14L169.598 15.272C170.14 15.244 170.536 15.1553 170.788 15.006C171.05 14.8567 171.241 14.5813 171.362 14.18C171.484 13.7693 171.544 13.144 171.544 12.304ZM181.696 8.58C182.714 8.58 183.442 8.79 183.88 9.21C184.319 9.63 184.538 10.3207 184.538 11.282V14.04C184.538 14.7027 184.608 15.356 184.748 16H183.768C183.694 15.636 183.647 15.2067 183.628 14.712H183.6C183.348 15.16 182.984 15.51 182.508 15.762C182.032 16.014 181.496 16.14 180.898 16.14C180.226 16.14 179.69 15.9533 179.288 15.58C178.887 15.1973 178.686 14.684 178.686 14.04C178.686 13.228 179.041 12.584 179.75 12.108C180.46 11.6227 181.468 11.38 182.774 11.38H183.516V11.31C183.516 10.6007 183.381 10.1107 183.11 9.84C182.849 9.56 182.378 9.42 181.696 9.42C180.819 9.42 180.002 9.63467 179.246 10.064L179.064 9.238C179.867 8.79933 180.744 8.58 181.696 8.58ZM179.694 13.998C179.694 14.418 179.825 14.7493 180.086 14.992C180.348 15.2253 180.698 15.342 181.136 15.342C181.78 15.342 182.336 15.1133 182.802 14.656C183.278 14.1893 183.516 13.62 183.516 12.948V12.164H182.774C181.794 12.164 181.034 12.332 180.492 12.668C179.96 12.9947 179.694 13.438 179.694 13.998ZM187.798 12.5V16H186.706V8.72H187.798V11.688H191.928V8.72H193.02V16H191.928V12.5H187.798ZM199.79 10.204C199.37 9.68133 198.792 9.42 198.054 9.42C197.317 9.42 196.734 9.68133 196.304 10.204C195.884 10.7173 195.674 11.436 195.674 12.36C195.674 13.284 195.884 14.0073 196.304 14.53C196.734 15.0433 197.317 15.3 198.054 15.3C198.792 15.3 199.37 15.0433 199.79 14.53C200.22 14.0073 200.434 13.284 200.434 12.36C200.434 11.436 200.22 10.7173 199.79 10.204ZM200.546 15.118C199.921 15.7993 199.09 16.14 198.054 16.14C197.018 16.14 196.188 15.7993 195.562 15.118C194.937 14.4367 194.624 13.5173 194.624 12.36C194.624 11.2027 194.937 10.2833 195.562 9.602C196.188 8.92067 197.018 8.58 198.054 8.58C199.09 8.58 199.921 8.92067 200.546 9.602C201.172 10.2833 201.484 11.2027 201.484 12.36C201.484 13.5173 201.172 14.4367 200.546 15.118ZM145.114 36.272C145.459 36.328 145.837 36.356 146.248 36.356C147.807 36.356 148.586 35.8473 148.586 34.83C148.586 33.906 147.76 33.444 146.108 33.444H145.114V36.272ZM145.114 32.744H146.094C146.766 32.744 147.289 32.632 147.662 32.408C148.035 32.184 148.222 31.876 148.222 31.484C148.222 30.7373 147.536 30.364 146.164 30.364C145.8 30.364 145.45 30.392 145.114 30.448V32.744ZM149.622 34.9C149.622 36.3653 148.483 37.098 146.206 37.098C145.375 37.098 144.657 37.0467 144.05 36.944V29.776C144.713 29.6733 145.394 29.622 146.094 29.622C147.223 29.622 148.026 29.79 148.502 30.126C148.987 30.4527 149.23 30.8727 149.23 31.386C149.23 31.806 149.085 32.1607 148.796 32.45C148.507 32.73 148.101 32.926 147.578 33.038V33.052C148.241 33.1547 148.745 33.3693 149.09 33.696C149.445 34.0133 149.622 34.4147 149.622 34.9ZM160.047 36.202C161.017 36.202 161.918 35.936 162.749 35.404L163.127 36.244C162.212 36.8413 161.153 37.14 159.949 37.14C158.409 37.14 157.177 36.664 156.253 35.712C155.329 34.76 154.867 33.486 154.867 31.89C154.867 30.2753 155.324 28.9967 156.239 28.054C157.153 27.1113 158.39 26.64 159.949 26.64C161.153 26.64 162.212 26.9387 163.127 27.536L162.749 28.376C161.918 27.844 161.017 27.578 160.047 27.578C158.815 27.578 157.83 27.97 157.093 28.754C156.365 29.5287 156.001 30.574 156.001 31.89C156.001 33.206 156.374 34.256 157.121 35.04C157.877 35.8147 158.852 36.202 160.047 36.202ZM171.097 30.574H168.437V37H167.331V30.574H164.671V29.72H171.097V30.574ZM177.983 29.72H179.103L176.275 37C175.789 38.2507 175.271 39.1 174.721 39.548C174.17 39.996 173.391 40.22 172.383 40.22L172.327 39.366C173.083 39.366 173.666 39.2027 174.077 38.876C174.487 38.5587 174.875 37.9333 175.239 37L172.285 29.72H173.433L175.771 35.754H175.799L177.983 29.72ZM182.036 36.16H185.886V30.56H182.876C182.876 31.4467 182.876 32.0673 182.876 32.422C182.876 32.7767 182.862 33.192 182.834 33.668C182.815 34.1347 182.792 34.438 182.764 34.578C182.745 34.7087 182.699 34.8953 182.624 35.138C182.549 35.3807 182.47 35.558 182.386 35.67C182.311 35.7727 182.195 35.936 182.036 36.16ZM180.818 36.16C181.023 35.908 181.168 35.7307 181.252 35.628C181.336 35.516 181.429 35.3387 181.532 35.096C181.635 34.844 181.695 34.6527 181.714 34.522C181.742 34.382 181.77 34.088 181.798 33.64C181.835 33.1827 181.854 32.772 181.854 32.408C181.854 32.0347 181.854 31.4187 181.854 30.56V29.72H186.908V36.16H187.888V38.68H186.866V37H181.168V38.68H180.146V36.16H180.818ZM190.559 35.572H190.587L194.731 29.72H195.879V37H194.815V31.148H194.801L190.643 37H189.495V29.72H190.559V35.572ZM199.05 35.572H199.078L203.222 29.72H204.37V37H203.306V31.148H203.292L199.134 37H197.986V29.72H199.05V35.572ZM211.796 27.718V31.05H216.374V31.946H211.796V36.062H216.654V37H210.676V26.78H216.654V27.718H211.796ZM219.817 36.272C220.162 36.328 220.54 36.356 220.951 36.356C222.51 36.356 223.289 35.8473 223.289 34.83C223.289 33.906 222.463 33.444 220.811 33.444H219.817V36.272ZM219.817 32.744H220.797C221.469 32.744 221.992 32.632 222.365 32.408C222.738 32.184 222.925 31.876 222.925 31.484C222.925 30.7373 222.239 30.364 220.867 30.364C220.503 30.364 220.153 30.392 219.817 30.448V32.744ZM224.325 34.9C224.325 36.3653 223.186 37.098 220.909 37.098C220.078 37.098 219.36 37.0467 218.753 36.944V29.776C219.416 29.6733 220.097 29.622 220.797 29.622C221.926 29.622 222.729 29.79 223.205 30.126C223.69 30.4527 223.933 30.8727 223.933 31.386C223.933 31.806 223.788 32.1607 223.499 32.45C223.21 32.73 222.804 32.926 222.281 33.038V33.052C222.944 33.1547 223.448 33.3693 223.793 33.696C224.148 34.0133 224.325 34.4147 224.325 34.9ZM225.999 29.72H231.319V30.602H227.077V37H225.999V29.72ZM233.491 32.94H237.971C237.962 32.128 237.766 31.5027 237.383 31.064C237 30.6253 236.473 30.406 235.801 30.406C235.101 30.406 234.546 30.63 234.135 31.078C233.734 31.5167 233.519 32.1373 233.491 32.94ZM233.491 33.752C233.51 34.5453 233.752 35.1707 234.219 35.628C234.686 36.0853 235.292 36.314 236.039 36.314C236.758 36.314 237.472 36.1273 238.181 35.754L238.461 36.552C237.677 36.944 236.837 37.14 235.941 37.14C234.896 37.14 234.051 36.7993 233.407 36.118C232.763 35.4367 232.441 34.5173 232.441 33.36C232.441 32.184 232.74 31.26 233.337 30.588C233.944 29.916 234.765 29.58 235.801 29.58C236.809 29.58 237.588 29.902 238.139 30.546C238.699 31.1807 238.979 32.0953 238.979 33.29C238.979 33.4113 238.97 33.5653 238.951 33.752H233.491ZM241.747 33.5V37H240.655V29.72H241.747V32.688H245.877V29.72H246.969V37H245.877V33.5H241.747ZM250.128 35.572H250.156L254.3 29.72H255.448V37H254.384V31.148H254.37L250.212 37H249.064V29.72H250.128V35.572ZM259.22 33.528C258.66 33.4067 258.198 33.1967 257.834 32.898C257.479 32.59 257.302 32.1793 257.302 31.666C257.302 30.3033 258.399 29.622 260.592 29.622C261.367 29.622 262.123 29.6733 262.86 29.776V37H261.796V33.878H260.83C260.317 33.878 259.957 33.9433 259.752 34.074C259.556 34.1953 259.332 34.5127 259.08 35.026L258.142 37H257.064L258.086 34.942C258.31 34.494 258.501 34.172 258.66 33.976C258.828 33.78 259.015 33.64 259.22 33.556V33.528ZM261.796 33.094V30.504C261.423 30.448 261.035 30.42 260.634 30.42C259.094 30.42 258.324 30.8633 258.324 31.75C258.324 32.646 259.145 33.094 260.788 33.094H261.796ZM270.285 36.076C270.751 36.1787 271.251 36.23 271.783 36.23C273.752 36.23 274.737 35.418 274.737 33.794C274.737 32.3193 273.719 31.582 271.685 31.582C271.181 31.582 270.714 31.6193 270.285 31.694V36.076ZM270.285 30.798C270.751 30.7233 271.251 30.686 271.783 30.686C273.117 30.686 274.116 30.952 274.779 31.484C275.451 32.016 275.787 32.7813 275.787 33.78C275.787 36.02 274.433 37.14 271.727 37.14C270.793 37.14 269.939 37.0653 269.165 36.916V26.78H275.185V27.69H270.285V30.798ZM280.12 29.58C281.137 29.58 281.865 29.79 282.304 30.21C282.743 30.63 282.962 31.3207 282.962 32.282V35.04C282.962 35.7027 283.032 36.356 283.172 37H282.192C282.117 36.636 282.071 36.2067 282.052 35.712H282.024C281.772 36.16 281.408 36.51 280.932 36.762C280.456 37.014 279.919 37.14 279.322 37.14C278.65 37.14 278.113 36.9533 277.712 36.58C277.311 36.1973 277.11 35.684 277.11 35.04C277.11 34.228 277.465 33.584 278.174 33.108C278.883 32.6227 279.891 32.38 281.198 32.38H281.94V32.31C281.94 31.6007 281.805 31.1107 281.534 30.84C281.273 30.56 280.801 30.42 280.12 30.42C279.243 30.42 278.426 30.6347 277.67 31.064L277.488 30.238C278.291 29.7993 279.168 29.58 280.12 29.58ZM278.118 34.998C278.118 35.418 278.249 35.7493 278.51 35.992C278.771 36.2253 279.121 36.342 279.56 36.342C280.204 36.342 280.759 36.1133 281.226 35.656C281.702 35.1893 281.94 34.62 281.94 33.948V33.164H281.198C280.218 33.164 279.457 33.332 278.916 33.668C278.384 33.9947 278.118 34.438 278.118 34.998ZM291.136 30.574H288.476V37H287.37V30.574H284.71V29.72H291.136V30.574ZM292.814 29.72H293.822V32.94H295.586C295.651 31.8853 295.978 31.064 296.566 30.476C297.154 29.8787 297.919 29.58 298.862 29.58C299.87 29.58 300.668 29.916 301.256 30.588C301.853 31.26 302.152 32.184 302.152 33.36C302.152 34.536 301.853 35.46 301.256 36.132C300.668 36.804 299.87 37.14 298.862 37.14C297.919 37.14 297.154 36.846 296.566 36.258C295.978 35.6607 295.651 34.8347 295.586 33.78H293.822V37H292.814V29.72ZM297.21 35.53C297.611 36.0433 298.162 36.3 298.862 36.3C299.562 36.3 300.108 36.0433 300.5 35.53C300.901 35.0167 301.102 34.2933 301.102 33.36C301.102 32.4267 300.901 31.7033 300.5 31.19C300.108 30.6767 299.562 30.42 298.862 30.42C298.162 30.42 297.611 30.6767 297.21 31.19C296.808 31.7033 296.608 32.4267 296.608 33.36C296.608 34.2933 296.808 35.0167 297.21 35.53ZM304.939 32.8L308.453 29.72H309.797L305.751 33.206L309.909 37H308.579L304.939 33.626H304.925V37H303.833V29.72H304.925V32.8H304.939ZM316.261 31.204C315.841 30.6813 315.262 30.42 314.525 30.42C313.788 30.42 313.204 30.6813 312.775 31.204C312.355 31.7173 312.145 32.436 312.145 33.36C312.145 34.284 312.355 35.0073 312.775 35.53C313.204 36.0433 313.788 36.3 314.525 36.3C315.262 36.3 315.841 36.0433 316.261 35.53C316.69 35.0073 316.905 34.284 316.905 33.36C316.905 32.436 316.69 31.7173 316.261 31.204ZM317.017 36.118C316.392 36.7993 315.561 37.14 314.525 37.14C313.489 37.14 312.658 36.7993 312.033 36.118C311.408 35.4367 311.095 34.5173 311.095 33.36C311.095 32.2027 311.408 31.2833 312.033 30.602C312.658 29.9207 313.489 29.58 314.525 29.58C315.561 29.58 316.392 29.9207 317.017 30.602C317.642 31.2833 317.955 32.2027 317.955 33.36C317.955 34.5173 317.642 35.4367 317.017 36.118ZM320.634 36.272C320.979 36.328 321.357 36.356 321.768 36.356C323.326 36.356 324.106 35.8473 324.106 34.83C324.106 33.906 323.28 33.444 321.628 33.444H320.634V36.272ZM320.634 32.744H321.614C322.286 32.744 322.808 32.632 323.182 32.408C323.555 32.184 323.742 31.876 323.742 31.484C323.742 30.7373 323.056 30.364 321.684 30.364C321.32 30.364 320.97 30.392 320.634 30.448V32.744ZM325.142 34.9C325.142 36.3653 324.003 37.098 321.726 37.098C320.895 37.098 320.176 37.0467 319.57 36.944V29.776C320.232 29.6733 320.914 29.622 321.614 29.622C322.743 29.622 323.546 29.79 324.022 30.126C324.507 30.4527 324.75 30.8727 324.75 31.386C324.75 31.806 324.605 32.1607 324.316 32.45C324.026 32.73 323.62 32.926 323.098 33.038V33.052C323.76 33.1547 324.264 33.3693 324.61 33.696C324.964 34.0133 325.142 34.4147 325.142 34.9ZM329.476 29.58C330.493 29.58 331.221 29.79 331.66 30.21C332.098 30.63 332.318 31.3207 332.318 32.282V35.04C332.318 35.7027 332.388 36.356 332.528 37H331.548C331.473 36.636 331.426 36.2067 331.408 35.712H331.38C331.128 36.16 330.764 36.51 330.288 36.762C329.812 37.014 329.275 37.14 328.678 37.14C328.006 37.14 327.469 36.9533 327.068 36.58C326.666 36.1973 326.466 35.684 326.466 35.04C326.466 34.228 326.82 33.584 327.53 33.108C328.239 32.6227 329.247 32.38 330.554 32.38H331.296V32.31C331.296 31.6007 331.16 31.1107 330.89 30.84C330.628 30.56 330.157 30.42 329.476 30.42C328.598 30.42 327.782 30.6347 327.026 31.064L326.844 30.238C327.646 29.7993 328.524 29.58 329.476 29.58ZM327.474 34.998C327.474 35.418 327.604 35.7493 327.866 35.992C328.127 36.2253 328.477 36.342 328.916 36.342C329.56 36.342 330.115 36.1133 330.582 35.656C331.058 35.1893 331.296 34.62 331.296 33.948V33.164H330.554C329.574 33.164 328.813 33.332 328.272 33.668C327.74 33.9947 327.474 34.438 327.474 34.998Z" fill="#272727"/>
    <path d="M2 97.6921L134 33L61.4595 169L2 97.6921Z" stroke="#272727" stroke-width="2"/>
</svg>
