<svg width="64" height="64" viewBox="0 0 64 64" fill="none" xmlns="http://www.w3.org/2000/svg">
    <g clip-path="url(#clip0)">
        <rect x="-0.0292969" width="64" height="64" fill="url(#paint0_radial)"/>
        <path fill-rule="evenodd" clip-rule="evenodd" d="M31.0926 20.237V16.0474C31.0926 15.4609 31.5534 15 32.14 15C32.7265 15 33.1874 15.4609 33.1874 16.0474V20.237C33.1874 20.8235 32.7265 21.2844 32.14 21.2844C31.5534 21.2844 31.0926 20.8235 31.0926 20.237ZM47.8507 43.0703C47.8507 43.6568 47.3899 44.1176 46.8033 44.1176H34V46H48C48.5523 46 49 46.4477 49 47C49 47.5523 48.5523 48 48 48H33H32H16C15.4477 48 15 47.5523 15 47C15 46.4477 15.4477 46 16 46H31V44.1176H17.5181C16.9316 44.1176 16.4707 43.6568 16.4707 43.0703C16.4707 34.7749 22.9646 27.9458 31.1343 27.4012V26.3119H30.5896C30.0031 26.3119 29.5422 25.851 29.5422 25.2645C29.5422 24.678 30.0031 24.2171 30.5896 24.2171H33.7318C34.2765 24.2171 34.7792 24.678 34.7792 25.2645C34.7792 25.851 34.3184 26.3119 33.7318 26.3119H33.1872V27.4012C41.3569 27.9458 47.8507 34.7749 47.8507 43.0703ZM19.1254 19.5637C18.7157 19.9771 18.7165 20.6275 19.1299 21.0373L22.0967 24.0158C22.3858 24.2854 22.7637 24.401 23.128 24.3034C23.2898 24.26 23.4813 24.1653 23.581 24.0518C23.9908 23.6384 23.99 22.988 23.5766 22.5783L20.6098 19.5997C20.1855 19.1496 19.5351 19.1503 19.1254 19.5637ZM40.7059 22.5369L43.6727 19.5583C44.0861 19.1486 44.7365 19.1494 45.157 19.5223C45.5667 19.9357 45.566 20.5861 45.1526 20.9958L42.1858 23.9744C41.8858 24.2844 41.5187 24.3595 41.1545 24.2619C40.9926 24.2186 40.8416 24.1347 40.7014 24.0104C40.2917 23.597 40.2925 22.9466 40.7059 22.5369Z" fill="white"/>
    </g>
    <defs>
        <radialGradient id="paint0_radial" cx="0" cy="0" r="1" gradientUnits="userSpaceOnUse" gradientTransform="translate(63.9707) rotate(127.632) scale(95.0738 117.145)">
            <stop stop-color="#00C2FF"/>
            <stop offset="1" stop-color="#0096FF"/>
        </radialGradient>
        <clipPath id="clip0">
            <rect width="64" height="64" fill="white"/>
        </clipPath>
    </defs>
</svg>
